<svg xmlns="http://www.w3.org/2000/svg" width="60.075" height="60.075" viewBox="0 0 60.075 60.075">
    <defs>
        <style>
            .cls-1{fill:#ff6f61}
        </style>
    </defs>
    <path id="arrow-alt-circle-right" d="M38.038 8A30.038 30.038 0 1 1 8 38.038 30.033 30.033 0 0 1 38.038 8zm-14.05 35.367h14.05v8.587a1.455 1.455 0 0 0 2.483 1.03l13.844-13.917a1.44 1.44 0 0 0 0-2.047L40.521 23.092a1.453 1.453 0 0 0-2.483 1.03v8.587h-14.05a1.458 1.458 0 0 0-1.453 1.453v7.752a1.458 1.458 0 0 0 1.453 1.453z" class="cls-1" transform="translate(-8 -8)"/>
</svg>
