<svg xmlns="http://www.w3.org/2000/svg" width="60.075" height="60.075" viewBox="0 0 60.075 60.075">
    <defs>
        <style>
            .cls-1{fill:#ff6f61}
        </style>
    </defs>
    <path id="arrow-alt-circle-left" d="M38.038 68.075a30.038 30.038 0 1 1 30.037-30.037 30.033 30.033 0 0 1-30.037 30.037zm14.05-35.367h-14.05v-8.587a1.455 1.455 0 0 0-2.483-1.03L21.711 37.008a1.44 1.44 0 0 0 0 2.047l13.844 13.917a1.453 1.453 0 0 0 2.483-1.03v-8.575h14.05a1.458 1.458 0 0 0 1.453-1.453v-7.752a1.458 1.458 0 0 0-1.453-1.454z" class="cls-1" transform="translate(-8 -8)"/>
</svg>
