<?xml version="1.0" encoding="utf-8"?>
<!-- Generator: Adobe Illustrator 23.1.1, SVG Export Plug-In . SVG Version: 6.00 Build 0)  -->
<svg version="1.1" id="Layer_1" xmlns="http://www.w3.org/2000/svg" xmlns:xlink="http://www.w3.org/1999/xlink" x="0px" y="0px"
	 viewBox="0 0 2507 1000" style="enable-background:new 0 0 2507 1000;" xml:space="preserve">
<style type="text/css">
	.st0{fill:#FA7268;}
	.st1{fill:#FFFFFF;}
	.st2{fill:#222222;}
</style>
<g>
	<path class="st0" d="M621.99,784H335.04c-77.61,0-140.52-62.92-140.52-140.53V356.53c0-77.61,62.91-140.53,140.52-140.53h286.95
		c77.61,0,140.53,62.92,140.53,140.53v286.95C762.52,721.08,699.6,784,621.99,784z"/>
	<path class="st1" d="M577.08,347.5l-134.32,0.04c-11.76,0.01-21.34,9.59-21.35,21.36v10.08h-10.09
		c-11.77,0.01-21.34,9.59-21.35,21.36v10.09h-10.08c-11.77,0.01-21.34,9.58-21.35,21.36l0.06,199.36
		c-0.01,11.78,9.57,21.36,21.35,21.35l94.37-0.02c6.59,0,12.91-2.6,17.59-7.24l24.44-24.21l29.33-0.01
		c11.79,0,21.37-9.58,21.36-21.36v-10.09h10.09c11.78,0,21.36-9.58,21.35-21.35l-0.04-199.36
		C598.43,357.07,588.86,347.5,577.08,347.5z M518.76,590l-24.72,0.01c-2.96,0-5.76,0.6-8.31,1.68
		c-7.66,3.25-13.04,10.85-13.04,19.68v0.01v0.01l0.02,24.21l-92.73,0.02c-2.46,0-4.48-2.01-4.49-4.49l-0.05-199.36
		c0-2.47,2.02-4.5,4.49-4.5l134.32-0.03c2.47,0,4.49,2.01,4.49,4.48L518.76,590L518.76,590z M550.19,599.67
		c-0.01,2.47-2.03,4.48-4.5,4.49h-12.06c0.71-0.76,2-2.34,2-5.71c-0.01-41.67-0.04-166.69-0.04-166.69
		c-0.01-11.77-9.59-21.35-21.38-21.35l-107.36,0.03v-10.09c0-2.46,2.01-4.48,4.47-4.48l134.32-0.04c2.47,0,4.5,2.02,4.5,4.49
		L550.19,599.67L550.19,599.67z M581.62,568.22c-0.01,2.47-2.02,4.49-4.49,4.49h-10.09L567,400.3
		c-0.01-11.77-9.58-21.35-21.38-21.35l-107.35,0.03v-10.09c0-2.47,2.01-4.48,4.47-4.48l134.33-0.04c2.46,0,4.49,2.01,4.49,4.49
		L581.62,568.22L581.62,568.22z"/>
	<g>
		<path class="st2" d="M1041.61,374.85c-0.55,0.55-1.38,1.11-1.94,1.94c-15.79,16.9-30.76,35.19-49.04,49.87
			c-1.38,3.05-3.05,6.37-4.71,9.42c-4.16,8.87-8.03,18.01-12.19,27.15c-4.16,9.7-8.59,19.12-13.02,28.82
			c-11.36,24.94-23,49.87-37.96,72.87c-7.2,11.08-14.96,21.61-24.11,31.31c5.82,0,11.64,0.55,17.46,1.11
			c5.54,0.83,11.36,1.66,16.9,2.49c2.77,0.55,5.27,0.83,7.76,1.38c1.39,0.28,2.77,0.28,4.16,0.55c0.55,0,1.11,0.28,1.94,0.28
			c0,0,0,0,0.28,0c4.99,0.83,9.97,1.11,14.96,1.38c2.49,0,4.71,0,7.2,0c1.11,0,2.22,0,3.6-0.28c0.55,0,1.11,0,1.66,0
			c2.22-0.55,4.16-0.83,6.37-1.38c1.11-0.28,1.94-0.83,3.05-1.11c0.28,0,0.28-0.28,0.55-0.28c0.28,0,0.55-0.28,0.83-0.28
			c1.94-1.11,3.6-2.22,5.54-3.32v-0.28c0.55-0.28,0.83-0.55,1.38-0.83c0.55-0.83,1.39-1.66,2.22-2.22c2.49-2.77,6.93-2.49,9.42,0
			c2.77,2.49,2.49,6.65,0,9.42c-3.6,4.16-8.31,7.76-13.3,9.98c-5.82,2.49-11.91,3.6-18.01,4.16c-10.53,0.83-20.78-0.28-31.03-1.94
			c-5.26-0.55-10.53-1.39-15.79-2.22c-2.49-0.55-4.99-0.83-7.76-1.39c-0.55,0-1.39,0-1.94-0.28c-0.28,0-0.28,0-0.55,0
			c-1.11-0.28-2.22-0.28-3.6-0.55c-4.99-0.55-9.7-0.83-14.69-0.83c-2.49,0-4.71,0-7.2,0.28c-0.55,0-1.11,0-1.66,0.28
			c-0.28,0-0.28,0-0.28,0c-1.11,0-1.94,0.28-3.05,0.55c-0.83,0-1.66,0.28-2.49,0.55c-5.54,4.71-11.64,8.87-18.01,12.47
			c-2.49,1.66-5.82,1.11-8.03-0.83c-1.94-2.22-2.77-5.82-1.11-8.31c3.88-4.99,8.31-9.42,13.85-12.47c2.49-1.39,4.99-2.49,7.48-3.33
			c3.88-3.32,7.76-7.2,11.36-11.08c2.49-2.22,4.71-4.71,6.93-7.48c1.11-1.11,2.22-2.49,3.33-3.88c0.55-0.55,1.11-1.38,1.38-1.94
			c0.28-0.28,1.11-1.11,1.11-1.39c4.16-5.27,8.03-10.81,11.36-16.35c7.48-11.36,14.13-23.55,20.5-35.74
			c6.1-12.19,11.64-24.66,17.46-37.13c4.43-9.42,8.87-18.84,13.02-28.26c2.22-5.26,4.71-10.53,7.2-15.79
			c-4.71,2.22-9.7,3.88-14.96,4.71c-6.1,0.83-11.92,1.11-17.73-0.28c-1.39-0.28-2.77-0.55-4.16-1.11c-0.28,0-0.55-0.28-0.83-0.28
			c-1.11-0.55-1.66-0.55-1.38-0.55c-0.83-0.28-1.66-0.55-2.49-1.11c-2.49-1.11-4.99-2.77-7.48-4.43c-2.22-1.66-3.32-4.43-1.94-6.93
			c1.39-2.22,4.71-3.33,6.93-1.94c1.39,0.83,2.77,1.66,4.16,2.49c0.55,0.28,1.39,0.55,1.94,0.83c0.28,0,0.55,0.28,0.83,0.28
			c2.49,1.11,5.26,1.66,7.76,2.22c0.28,0,0.83,0,1.11,0.28c0.55,0,1.38,0,1.94,0c1.11,0,2.49,0.28,3.6,0c0.83,0,1.66,0,2.22,0
			c0.28,0,1.39-0.28,1.66-0.28c0.83,0,1.66-0.28,2.77-0.55c2.49-0.55,5.26-1.39,7.76-2.22c0.28-0.28,0.55-0.28,1.11-0.55
			c0.55-0.28,1.11-0.55,1.66-0.83c1.11-0.55,2.49-1.11,3.6-1.94c2.49-1.38,4.99-2.77,7.48-4.43c1.11-0.83,2.22-1.66,3.6-2.49
			c3.6-7.48,7.76-14.68,12.47-21.89c5.82-8.59,12.19-17.46,20.23-24.11c3.88-3.32,8.04-6.1,12.75-8.04
			c3.88-1.66,8.31-2.22,12.47-1.94C1042.44,365.15,1045.21,370.97,1041.61,374.85z M990.63,597.07c0,0,0,0,0-0.28
			C990.63,597.07,990.63,597.07,990.63,597.07z M990.91,596.52c0.28,0,0.55-0.28,0.55-0.28S991.18,596.52,990.91,596.52z"/>
		<path class="st2" d="M1293.75,552.18c-0.28,1.66-1.38,2.77-2.77,3.88c0,0,1.39-1.11,0.55-0.28c-0.28,0-0.55,0.28-0.55,0.55
			c-0.55,0.28-0.83,0.55-1.38,0.83c-0.28,0.55-0.83,0.83-1.11,1.11c-0.55,0.55-1.11,0.83-1.66,1.11c1.11-0.55,1.39-0.83,0.83-0.55
			c-0.28,0.28-0.28,0.28-0.55,0.55c-7.48,6.37-16.35,11.08-24.94,15.52c-9.97,4.71-20.5,9.14-31.03,13.02
			c-20.5,7.48-42.12,13.02-64.01,14.96c-9.42,0.83-19.12,0.55-28.26-1.11c-8.31-1.39-16.07-4.71-22.44-9.98
			c-7.2-6.1-10.81-14.68-11.64-24.11c0-0.55-0.28-1.11-0.28-1.94c-1.66,1.66-3.6,3.6-5.54,5.26
			c-15.52,13.85-32.14,27.15-50.43,37.41c-4.16,2.22-8.31,4.43-12.75,6.1c-3.6,1.39-7.48,2.77-11.08,2.49
			c-2.49,0-4.71-0.28-6.93-1.66c-2.49-1.39-3.88-3.6-4.99-6.37c-1.66-4.16-0.55-9.42,1.11-13.58c0.55-1.94,1.39-3.88,2.22-5.82
			c-1.38,3.33,0.28-0.55,0.28-0.83c0.28-0.28,0.28-0.55,0.55-0.83c0.55-1.11,1.11-2.22,1.66-3.6c1.66-2.77,3.6-5.54,5.82-8.31
			c5.26-7.48,11.36-14.68,17.73-21.34c6.93-6.93,14.13-13.58,21.89-19.67c7.48-5.82,15.52-11.36,24.11-15.24
			c8.03-3.32,16.62-5.54,25.21-3.88c4.71,1.11,8.31,3.6,11.91,6.93c1.94-1.11,4.16-1.11,6.37,0.28c3.33,1.94,4.99,6.93,2.77,10.25
			c-0.83,1.11-1.66,2.22-2.22,3.32c-2.22,3.05-4.43,6.1-6.37,9.42c-1.11,1.66-1.94,3.05-2.77,4.71c-0.28,0.83-0.83,1.66-1.11,2.22
			c0,0.28,0,0.55-0.28,0.55c0,0.28,0,0.28,0,0.28c-0.55,1.66-1.11,3.32-1.66,4.99c0,0.83-0.28,1.39-0.28,2.22
			c0,0.28,0,0.83-0.28,1.11c0,1.94,0,3.88,0.28,5.54c0,0.55,0,0.83,0.28,1.39c0,0.55,0.28,1.11,0.28,1.66
			c0.28,0.83,0.55,1.66,0.83,2.49c0,0.28,0,0.55,0.28,0.55v0.28c0.55,1.39,1.38,2.49,2.22,3.88c0.28,0.28,0.55,0.55,0.83,0.83
			c0.28,0.55,0.83,1.11,1.39,1.66c0.55,0.28,0.83,0.55,1.11,0.55c0.55,0.55,1.11,0.83,1.66,1.11c1.39,1.11,2.77,1.66,4.16,2.49
			c0.55,0,0.83,0.28,1.11,0.28c0.83,0.28,1.66,0.55,2.49,0.83c1.94,0.55,3.88,1.11,5.82,1.39c0.83,0.28,1.66,0.28,2.77,0.55
			c0.55,0,0.83,0,1.39,0c9.42,1.11,18.56,0.55,27.99-0.55c0,0,0,0,0.28,0c0.55-0.28,1.38-0.28,1.94-0.28
			c1.11-0.28,2.49-0.55,3.6-0.83c2.77-0.28,5.26-0.83,7.76-1.39c5.26-1.11,10.53-2.22,15.79-3.88c10.81-2.77,21.33-6.37,31.59-10.25
			c2.49-1.11,4.71-1.94,7.2-3.05c0.28,0,0.55-0.28,0.83-0.28c0.55-0.28,1.11-0.55,1.66-0.83c1.11-0.55,2.22-1.11,3.6-1.66
			c4.43-1.94,8.87-4.16,13.58-6.37c4.16-2.22,8.04-4.43,12.19-6.65c1.66-1.11,3.6-2.22,5.54-3.33c1.94-0.55,1.94-0.83,0.28,0
			c0.28-0.28,0.28-0.28,0.55-0.28c0.28-0.28,0.28-0.28,0.55-0.55c0.28-0.28,0.83-0.28,1.11-0.55c0.83-0.55,1.66-1.11,2.49-1.66
			c2.49-1.94,6.93-0.28,8.31,2.22C1294.03,548.86,1294.31,550.8,1293.75,552.18z M1111.71,537.5c1.66-1.94,3.33-3.6,4.99-5.54
			c-0.28-0.28-0.56-0.55-0.83-0.83c-0.55-0.28-1.11-0.55-1.66-0.83c-0.28-0.28-0.55-0.28-0.83-0.55c-1.11-0.28-2.22-0.83-3.33-0.83
			c-0.28,0-0.55-0.28-0.83-0.28c-0.83,0-1.66,0-2.49,0c-0.28,0.28-1.66,0.28-1.94,0.28c-0.55,0-0.83,0.28-1.38,0.28
			c-1.66,0.55-3.6,0.83-5.27,1.66c-0.55,0-1.11,0.28-1.39,0.55c-0.28,0-0.28,0-0.28,0c-0.28,0-0.55,0.28-0.83,0.28c0,0,0,0-0.28,0
			c-0.28,0.28-0.83,0.55-1.11,0.83c-4.16,1.66-7.76,3.88-11.36,6.37c-1.94,1.11-3.88,2.49-5.82,3.88c-0.55,0.55-1.11,0.83-1.66,1.39
			c0,0-0.28,0-0.28,0.28c-0.83,0.55-1.66,1.11-2.49,1.94c-7.76,6.1-14.69,13.02-21.34,19.95c-3.33,3.32-6.37,6.93-9.14,10.53
			c-0.83,0.83-1.39,1.66-2.22,2.49c-0.28,0.28-0.55,0.55-0.83,1.11c-1.11,1.38-2.22,3.05-3.32,4.43c-1.94,2.77-3.6,5.54-4.99,8.31
			c-0.55,0.55-0.83,1.11-1.11,1.94c0,0,0,0.28-0.28,0.28c0,0.55-0.28,1.11-0.55,1.39c0,0.28,0,0.28,0,0.28
			c-0.28,0.55-0.55,1.11-0.55,1.94c-0.56,0.83-0.83,1.94-1.11,2.77c1.39-0.28,3.05-0.83,4.43-1.39c0.28-0.28,0.28-0.28,0.55-0.28
			c0.56-0.28,0.83-0.55,1.39-0.55c0.83-0.55,1.66-1.11,2.77-1.38c3.88-1.94,7.48-4.16,11.08-6.65c3.05-1.66,6.1-3.88,9.14-5.82
			c1.94-1.11,3.6-2.49,5.27-3.6c1.11-0.83,2.22-1.66,3.6-2.49c0.28-0.55,0.83-0.83,1.39-1.11c0.28-0.28,0.55-0.55,0.55-0.55
			c10.53-8.31,20.78-17.18,30.48-26.32C1102.57,546.92,1107.28,542.21,1111.71,537.5z M1144.96,587.65c0.28,0,0.28,0,0.28,0
			C1145.79,587.65,1146.62,587.93,1144.96,587.65z"/>
		<path class="st2" d="M1625.14,335.5c-5.54,4.71-11.64,8.87-17.46,13.02c-5.82,4.43-11.36,9.14-16.9,13.3
			c-12.19,9.98-23.55,20.78-34.63,31.59c-5.54,5.82-10.81,11.36-16.07,17.18c-2.49,3.05-4.99,6.1-7.48,9.14
			c-0.83,0.55-1.11,1.11-1.94,1.66c-0.28,0.83-0.83,1.11-1.11,1.39c-1.11,1.38-2.22,3.05-3.6,4.71
			c-19.67,24.38-37.41,50.98-53.48,78.41c-16.35,27.43-30.76,55.69-44.33,84.51l0.28,0.28c-0.28,0.28-0.55,0.55-0.55,1.39
			c-0.55,0.55-0.83,1.39-1.39,2.49c-0.83,1.66-1.66,3.33-2.49,4.99c-1.39,3.6-3.05,7.2-4.71,10.81c-3.33,6.93-6.37,14.13-9.7,21.34
			c-3.05,6.93-6.1,14.13-9.14,21.06c-1.66,4.16-3.32,8.03-5.26,11.91c-0.28,0-0.28,0.28-0.55,0.55c0,0.55,0,1.11,0,1.66
			c0,3.05-1.94,5.82-4.71,7.2c0,0.28,0,0.28,0,0.55c-1.94,3.32-6.65,4.16-9.7,2.22c-2.49-1.38-3.6-4.43-3.32-6.93
			c-0.56-1.38-0.83-2.77-0.56-4.16c0-1.11,0-2.22,0-3.6c0.83-15.79,1.94-31.86,3.33-47.66c1.66-22.17,3.88-44.61,5.54-66.78
			c2.22-23.27,4.71-46.55,7.2-69.82c2.49-18.84,4.99-37.96,8.59-56.8c-0.28,0.55-0.28,1.39-0.55,1.94c0.83-3.05,1.66-6.1,2.22-9.42
			c1.39-4.71,6.65-6.93,11.08-5.54c3.33,1.11,6.37,4.71,5.82,8.59c-0.83,4.16-1.39,8.59-1.66,12.47
			c-3.05,19.12-5.26,38.51-7.2,57.91c-2.77,23.27-4.99,46.83-7.2,69.83c-1.39,18.84-3.05,37.41-4.71,55.97
			c10.81-24.66,22.17-49.32,34.36-73.15c14.69-28.26,30.48-55.97,48.49-82.57c18.01-26.32,37.96-51.81,60.13-75.09
			c11.08-11.08,22.17-21.89,34.36-31.59c6.65-5.54,13.58-10.53,20.23-15.24c6.37-4.71,13.02-8.87,20.23-12.19
			c3.32-1.94,8.31-0.83,10.25,3.05C1628.19,329.13,1627.91,333.29,1625.14,335.5z"/>
		<path class="st2" d="M1508.49,534.45c2.22,0,4.71,1.11,6.37,2.77c3.33,3.32,3.33,8.87,0,12.47c-3.05,3.05-5.54,6.37-8.59,9.7
			c-3.88,4.43-7.48,8.87-11.08,13.58c0.55-0.83,1.11-1.38,1.39-1.94c-2.22,3.05-4.71,6.1-6.65,9.42c-1.11,1.38-1.94,2.77-2.77,4.43
			c0.28-0.83,0.83-1.66,1.11-2.49c-0.28,0.83-0.55,1.66-0.83,2.49c0.28-0.83,0.28-1.66,0.55-2.49c-0.28,0.83-0.28,1.66,0,2.22
			c-0.28-0.83-0.28-1.66-0.55-2.49c0.28,0.83,0.28,1.39,0.55,2.22c-0.28-0.83-0.55-1.66-0.83-2.22c0.28,0.55,0.83,1.39,1.38,2.22
			c-0.55-0.83-1.11-1.39-1.66-1.94c1.11,1.11,2.22,2.22,3.33,3.05c-0.55-0.28-1.11-0.83-1.94-1.38c2.49,1.94,5.27,3.32,8.31,4.71
			c-0.83-0.55-1.39-0.83-2.22-1.11c8.04,3.33,16.35,5.27,24.94,6.37c-0.55,0-1.39,0-2.22-0.28c1.94,0.28,3.6,0.55,5.54,0.83
			c9.14,0.83,18.29,1.11,27.71,1.11c10.25-0.28,20.78-0.83,31.03-1.94c2.77-0.28,5.54-0.55,8.31-0.83c0.55,0,1.39-0.28,2.22-0.28
			c-2.49,0.28,0,0,0.55,0c0.83-0.28,1.39-0.28,1.94-0.28c0.83-0.28,3.6-0.83,1.11-0.28c0.28,0,0.55,0,1.11-0.28
			c5.54-0.83,11.08-2.22,16.63-3.32c11.08-2.77,22.44-6.1,33.25-10.25c2.77-1.11,5.27-2.22,8.04-3.33c0.28,0,0.55-0.28,0.55-0.28
			c-0.83,0.28-0.83,0.55-0.28,0.28c0.28-0.28,0.55-0.28,0.83-0.55c0.83-0.28,1.38-0.55,1.94-0.83c1.38-0.55,2.77-1.11,3.88-1.66
			c5.27-2.49,10.53-4.99,15.52-8.03c4.99-2.77,9.98-5.82,14.69-8.87c2.49-1.66,4.99-3.33,7.2-4.99c1.11-0.83,2.22-1.94,3.6-2.77
			c0.55-0.28,1.11-0.83,1.66-1.11c0.28-0.28,0.55-0.55,0.83-0.55c0-0.28,1.11-1.11,0-0.28c2.22-1.66,4.99-1.94,7.2,0
			c1.94,1.94,1.94,5.54,0,7.2c-7.48,7.2-15.79,13.3-24.66,18.56c-19.95,12.47-42.12,21.34-65.11,27.71
			c-10.81,3.05-21.89,5.27-32.97,7.48c-5.27,1.11-10.53,1.94-16.07,2.77c-0.83,0.28-1.94,0.28-2.77,0.28c2.49-0.28,1.39,0,0.55,0
			c-1.11,0.28-2.22,0.28-3.32,0.55c-1.39,0-2.49,0.28-3.88,0.55c-2.49,0-4.99,0.28-7.76,0.55c-9.42,0.55-18.84,0.55-28.54,0.28
			c-8.31-0.28-17.18-1.11-25.49-2.77c0.83,0,1.66,0,2.22,0.28c-2.22-0.28-4.43-0.55-6.65-1.11c-6.09-1.11-12.19-3.32-17.46-6.37
			c-4.99-3.05-9.7-7.48-11.08-13.58c-0.83-3.05-0.83-6.37,0.28-9.42c1.38-4.71,4.16-8.59,6.93-12.19
			c7.76-10.25,15.79-20.78,25.77-28.82C1504.05,535.56,1505.99,534.45,1508.49,534.45z M1517.08,506.46c0.83-2.77,3.6-3.88,6.1-3.6
			c0.28,0,2.22,0.28,1.39,0.28c0.55,0,1.11,0,1.66,0.28c0.83,0,1.94,0,3.05,0c1.94,0.28,3.88,0,6.09,0c0.56,0,1.11-0.28,1.94-0.28
			c1.66-0.28-1.11,0.28,0.55,0c1.11-0.28,2.22-0.28,3.05-0.55c2.22-0.55,4.16-0.83,6.37-1.39c2.49-0.83,5.54,0.83,6.1,3.6
			c0.83,2.49-0.83,5.26-3.32,6.1c-9.7,2.77-19.67,3.33-29.37,1.66C1517.91,512.01,1516.52,508.96,1517.08,506.46z"/>
		<path class="st2" d="M1885.59,556.89c-28.82,12.75-57.91,25.21-87.56,36.3c-19.4,7.2-39.07,13.85-59.3,18.84
			c-7.2,1.66-14.68,3.05-21.89,3.88c-4.99,0.55-9.98,0.83-14.69,0.28s-9.14-1.39-13.02-3.6c-3.88-2.49-6.65-5.82-8.04-9.98
			c-2.77-7.76,0.55-16.62,3.88-23.83c4.71-9.7,10.53-18.84,16.07-27.71c9.14-14.69,18.84-29.37,28.26-43.78
			c6.1-8.59,11.91-17.18,18.01-26.05c-13.02-0.28-26.05-0.55-39.07-0.83c-2.77,0-4.99-2.22-4.99-4.99c0-3.05,2.22-5.26,4.99-5.26
			c14.13,0,28.26,0,42.39,0.28c1.38,0,2.77,0,4.16,0.28c3.32-4.43,6.37-8.87,9.42-13.3c11.91-16.07,23.83-32.14,36.57-47.66
			c9.7-11.64,19.67-23.28,30.76-33.8c4.16-3.6,8.31-7.2,13.02-9.98c4.16-2.22,8.31-3.88,13.02-3.05c1.94,0.28,4.16,2.49,4.43,4.43
			c0.28,1.94,0.55,3.88,0.55,5.54c0,7.48-2.49,14.69-5.26,21.34c-3.6,7.48-8.04,14.68-12.75,21.61c-1.39,1.94-2.77,3.88-4.16,5.82
			c-0.83,1.11-1.66,1.94-2.49,3.05c-0.28,0.55-0.83,1.11-1.38,1.94c-0.28,0.55-1.11,1.39-0.83,1.11c-0.28,0.28-0.55,0.55-0.55,0.83
			c-3.33,3.88-6.37,8.04-9.98,11.92c-6.93,8.31-14.41,16.35-21.89,24.11c-2.22,2.49-4.71,4.99-7.2,7.48
			c21.61,0.83,43.23,1.66,64.56,2.77c3.05,0,5.54,2.22,5.54,5.54c0,2.77-2.49,5.26-5.54,5.26c-14.13-0.28-28.26-0.83-42.39-1.39
			c-11.08-0.55-22.17-1.11-32.97-1.38c-9.14,8.87-18.56,17.46-27.98,26.05c-3.33,3.05-6.65,6.1-10.25,8.87
			c-0.28,0.55-0.83,0.83-1.11,1.38c-0.28,0-0.55,0.28-0.55,0.55c-1.38,0.83-1.66,1.11-0.55,0.28c0,0,0,0-0.28,0
			c-0.55,0.83-1.39,1.39-2.22,1.94c-1.39,1.38-3.05,2.49-4.43,3.88c-2.77,2.22-5.54,4.71-8.31,6.93
			c-4.71,7.2-9.14,14.41-13.58,21.33c-6.1,9.97-12.19,19.67-17.46,30.2c-0.28,0.83-0.83,1.66-1.11,2.49
			c-0.28,0.28-0.28,0.55-0.55,1.11c-0.55,1.66-1.11,3.32-1.66,4.99c-0.28,0.55-0.28,1.38-0.28,1.94c0,0.28-0.28,0.55-0.28,0.83
			c0,0.55,0,1.11,0,1.66c0.28,0,0.28,0.28,0.28,0.55c0,0,0,0.28,0,0.55c0.28,0,0.28,0.28,0.55,0.55l0.28,0.28l0.28,0.28
			c0.55,0.28,0.83,0.55,1.39,0.83c0.28,0,0.55,0,0.55,0.28c0.83,0.28,1.66,0.28,2.49,0.55c0.55,0,0.83,0.28,1.39,0.28
			c4.71,0.55,9.42,0.28,13.85-0.28c0.83,0,1.39-0.28,1.94-0.28c0.28,0,0.55,0,0.83,0c1.66-0.28,3.33-0.55,4.99-0.83
			c3.6-0.83,7.2-1.39,10.53-2.22c20.23-4.99,39.62-11.64,59.02-18.84c13.3-4.99,26.32-9.98,39.35-15.52
			c3.88-1.38,7.48-3.05,11.08-4.43c0.55-0.28,1.11-0.55,1.66-0.83c0.28,0,0.55,0,0.55-0.28c0.83-0.28,1.66-0.55,2.49-0.83
			c1.66-0.83,3.6-1.66,5.54-2.49c8.04-3.32,16.07-6.93,24.38-10.53c1.94-0.83,3.6-1.39,5.54-0.83s3.6,1.66,4.43,3.6
			C1890.03,549.97,1889.2,555.23,1885.59,556.89z M1763.68,482.08c-3.88,5.26-7.48,10.81-11.08,16.07c0.28-0.28,0.55-0.55,1.11-1.11
			c5.26-4.71,10.53-9.7,15.79-14.96C1767.56,482.08,1765.62,482.08,1763.68,482.08z M1771.16,471c3.05,0.28,6.1,0.28,9.42,0.28
			c6.37-6.37,12.75-12.75,18.84-19.4c7.48-8.04,14.68-16.07,21.33-24.38c1.66-1.94,3.33-3.88,4.99-6.1c0-0.28,0.28-0.28,0.55-0.55
			c0.28-0.55,0.55-1.11,0.83-1.38c0.83-1.11,1.66-1.94,2.22-3.05c2.77-3.6,5.54-7.48,8.04-11.36c2.22-3.6,4.43-7.2,6.37-11.08
			c0.83-1.66,1.66-3.33,2.49-5.26c0,0,0.28-0.55,0.28-0.83c0,0,0.28-0.28,0.28-0.55c0.28-0.83,0.55-1.39,0.83-2.22
			c0.83-2.49,1.66-4.99,2.22-7.48c-0.83,0.55-1.66,1.11-2.49,1.66c-0.28,0.28-0.55,0.28-0.83,0.55c-0.28,0.28-0.28,0.28-0.55,0.28
			c-0.83,0.83-1.66,1.66-2.49,2.22c-10.81,9.42-20.5,20.78-29.65,31.86c-2.77,3.6-5.54,7.2-8.31,10.81
			c-1.39,1.66-2.77,3.33-4.16,5.26c-0.28,0.28-0.55,0.55-0.55,0.55c-0.55,0.55-0.83,1.11-1.11,1.38c-0.83,1.11-1.39,1.94-2.22,2.77
			c-6.1,8.04-11.92,16.07-17.73,24.11C1776.98,463.24,1773.93,467.12,1771.16,471z M1836.27,426.94l0.28-0.28
			C1836.83,426.11,1837.1,426.11,1836.27,426.94z"/>
		<path class="st2" d="M2120.28,552.18c-0.28,1.66-1.38,2.77-2.77,3.88c0,0,1.39-1.11,0.55-0.28c-0.28,0-0.55,0.28-0.55,0.55
			c-0.55,0.28-0.83,0.55-1.38,0.83c-0.28,0.55-0.83,0.83-1.11,1.11c-0.55,0.55-1.11,0.83-1.66,1.11c1.11-0.55,1.39-0.83,0.83-0.55
			c-0.28,0.28-0.28,0.28-0.55,0.55c-7.48,6.37-16.35,11.08-24.94,15.52c-9.97,4.71-20.5,9.14-31.03,13.02
			c-20.5,7.48-42.12,13.02-64.01,14.96c-9.42,0.83-19.12,0.55-28.26-1.11c-8.31-1.39-16.07-4.71-22.44-9.98
			c-7.2-6.1-10.81-14.68-11.64-24.11c0-0.55-0.28-1.11-0.28-1.94c-1.66,1.66-3.6,3.6-5.54,5.26
			c-15.52,13.85-32.14,27.15-50.43,37.41c-4.16,2.22-8.31,4.43-12.75,6.1c-3.6,1.39-7.48,2.77-11.08,2.49
			c-2.49,0-4.71-0.28-6.93-1.66c-2.49-1.39-3.88-3.6-4.99-6.37c-1.66-4.16-0.55-9.42,1.11-13.58c0.55-1.94,1.39-3.88,2.22-5.82
			c-1.38,3.33,0.28-0.55,0.28-0.83c0.28-0.28,0.28-0.55,0.55-0.83c0.55-1.11,1.11-2.22,1.66-3.6c1.66-2.77,3.6-5.54,5.82-8.31
			c5.26-7.48,11.36-14.68,17.73-21.34c6.93-6.93,14.13-13.58,21.89-19.67c7.48-5.82,15.52-11.36,24.11-15.24
			c8.03-3.32,16.62-5.54,25.21-3.88c4.71,1.11,8.31,3.6,11.91,6.93c1.94-1.11,4.16-1.11,6.37,0.28c3.33,1.94,4.99,6.93,2.77,10.25
			c-0.83,1.11-1.66,2.22-2.22,3.32c-2.22,3.05-4.43,6.1-6.37,9.42c-1.11,1.66-1.94,3.05-2.77,4.71c-0.28,0.83-0.83,1.66-1.11,2.22
			c0,0.28,0,0.55-0.28,0.55c0,0.28,0,0.28,0,0.28c-0.55,1.66-1.11,3.32-1.66,4.99c0,0.83-0.28,1.39-0.28,2.22
			c0,0.28,0,0.83-0.28,1.11c0,1.94,0,3.88,0.28,5.54c0,0.55,0,0.83,0.28,1.39c0,0.55,0.28,1.11,0.28,1.66
			c0.28,0.83,0.55,1.66,0.83,2.49c0,0.28,0,0.55,0.28,0.55v0.28c0.55,1.39,1.38,2.49,2.22,3.88c0.28,0.28,0.55,0.55,0.83,0.83
			c0.28,0.55,0.83,1.11,1.39,1.66c0.55,0.28,0.83,0.55,1.11,0.55c0.55,0.55,1.11,0.83,1.66,1.11c1.39,1.11,2.77,1.66,4.16,2.49
			c0.55,0,0.83,0.28,1.11,0.28c0.83,0.28,1.66,0.55,2.49,0.83c1.94,0.55,3.88,1.11,5.82,1.39c0.83,0.28,1.66,0.28,2.77,0.55
			c0.55,0,0.83,0,1.39,0c9.42,1.11,18.56,0.55,27.99-0.55c0,0,0,0,0.28,0c0.55-0.28,1.38-0.28,1.94-0.28
			c1.11-0.28,2.49-0.55,3.6-0.83c2.77-0.28,5.26-0.83,7.76-1.39c5.26-1.11,10.53-2.22,15.79-3.88c10.81-2.77,21.33-6.37,31.59-10.25
			c2.49-1.11,4.71-1.94,7.2-3.05c0.28,0,0.55-0.28,0.83-0.28c0.55-0.28,1.11-0.55,1.66-0.83c1.11-0.55,2.22-1.11,3.6-1.66
			c4.43-1.94,8.87-4.16,13.58-6.37c4.16-2.22,8.04-4.43,12.19-6.65c1.66-1.11,3.6-2.22,5.54-3.33c1.94-0.55,1.94-0.83,0.28,0
			c0.28-0.28,0.28-0.28,0.55-0.28c0.28-0.28,0.28-0.28,0.55-0.55c0.28-0.28,0.83-0.28,1.11-0.55c0.83-0.55,1.66-1.11,2.49-1.66
			c2.49-1.94,6.93-0.28,8.31,2.22C2120.56,548.86,2120.83,550.8,2120.28,552.18z M1938.24,537.5c1.66-1.94,3.33-3.6,4.99-5.54
			c-0.28-0.28-0.55-0.55-0.83-0.83c-0.55-0.28-1.11-0.55-1.66-0.83c-0.28-0.28-0.55-0.28-0.83-0.55c-1.11-0.28-2.22-0.83-3.33-0.83
			c-0.28,0-0.55-0.28-0.83-0.28c-0.83,0-1.66,0-2.49,0c-0.28,0.28-1.66,0.28-1.94,0.28c-0.55,0-0.83,0.28-1.38,0.28
			c-1.66,0.55-3.6,0.83-5.27,1.66c-0.55,0-1.11,0.28-1.39,0.55c-0.28,0-0.28,0-0.28,0c-0.28,0-0.55,0.28-0.83,0.28c0,0,0,0-0.28,0
			c-0.28,0.28-0.83,0.55-1.11,0.83c-4.16,1.66-7.76,3.88-11.36,6.37c-1.94,1.11-3.88,2.49-5.82,3.88c-0.55,0.55-1.11,0.83-1.66,1.39
			c0,0-0.28,0-0.28,0.28c-0.83,0.55-1.66,1.11-2.49,1.94c-7.76,6.1-14.69,13.02-21.34,19.95c-3.33,3.32-6.37,6.93-9.14,10.53
			c-0.83,0.83-1.39,1.66-2.22,2.49c-0.28,0.28-0.55,0.55-0.83,1.11c-1.11,1.38-2.22,3.05-3.32,4.43c-1.94,2.77-3.6,5.54-4.99,8.31
			c-0.55,0.55-0.83,1.11-1.11,1.94c0,0,0,0.28-0.28,0.28c0,0.55-0.28,1.11-0.55,1.39c0,0.28,0,0.28,0,0.28
			c-0.28,0.55-0.55,1.11-0.55,1.94c-0.55,0.83-0.83,1.94-1.11,2.77c1.39-0.28,3.05-0.83,4.43-1.39c0.28-0.28,0.28-0.28,0.55-0.28
			c0.55-0.28,0.83-0.55,1.39-0.55c0.83-0.55,1.66-1.11,2.77-1.38c3.88-1.94,7.48-4.16,11.08-6.65c3.05-1.66,6.1-3.88,9.14-5.82
			c1.94-1.11,3.6-2.49,5.27-3.6c1.11-0.83,2.22-1.66,3.6-2.49c0.28-0.55,0.83-0.83,1.39-1.11c0.28-0.28,0.55-0.55,0.55-0.55
			c10.53-8.31,20.78-17.18,30.48-26.32C1929.09,546.92,1933.8,542.21,1938.24,537.5z M1971.49,587.65c0.28,0,0.28,0,0.28,0
			C1972.32,587.65,1973.15,587.93,1971.49,587.65z"/>
		<path class="st2" d="M2310.91,553.57c0.83-1.39,0.83-1.11-0.28,0.28c-0.28,0-0.28,0.28-0.28,0.28c-0.28,0.28-0.55,0.28-0.55,0.55
			c-0.28,0.28-0.55,0.55-0.83,1.11c-0.28,0-0.55,0.28-0.83,0.55c1.11-1.38,0.83-1.11-0.28,0.28v0.28c-0.55,0.28-0.83,0.55-1.11,1.11
			c-0.55,0.55-1.39,1.39-1.94,1.94c-2.22,1.66-4.16,3.05-6.1,4.71c-3.6,2.49-7.48,4.99-11.36,7.2c-8.31,4.99-17.18,9.42-26.32,13.3
			c-10.25,4.43-20.78,8.59-31.59,11.64c-10.53,2.77-20.78,5.26-31.31,7.2c-19.12,3.32-39.35,5.54-58.74,3.05
			c-8.59-0.83-16.9-2.77-24.94-6.65c-6.1-2.77-11.91-7.76-15.24-13.85c-1.94-3.88-3.05-7.76-3.32-12.19
			c-0.55-6.1,1.11-11.91,3.6-17.46c1.94-3.88,4.43-7.76,7.48-11.08c0.55-0.83,1.66-1.94,2.49-2.49c0.28-0.28,0.55-0.55,0.83-0.83
			c4.43-4.16,9.7-8.31,15.24-11.36s11.36-5.54,17.73-6.93c3.05-0.83,6.37-1.11,9.7-1.11c3.32,0,6.37,0.83,9.7,1.39
			c2.77,0.55,5.82,1.66,8.59,3.05c2.49,1.11,4.99,3.33,6.1,5.54c1.38,3.33,1.94,6.37,1.11,9.98c-0.55,2.49-1.94,4.99-3.32,6.93
			c-3.33,5.26-8.04,9.42-13.3,13.02c-4.16,3.05-8.87,5.82-13.85,7.2c-8.03,2.22-16.07,1.66-23.55-1.94
			c-2.49-1.39-4.99-2.77-7.21-4.71c-0.28,0.55-0.55,1.11-0.55,1.66c-0.83,1.66-1.38,3.32-1.66,5.26c0,1.11,0,2.22,0,3.33
			c0.28,0.83,0.55,1.66,0.83,2.49s0.83,1.39,1.11,2.22c0.83,0.83,1.66,1.66,2.49,2.49c1.94,1.11,3.88,2.22,6.09,3.33
			c4.99,1.94,9.98,3.05,15.24,3.88c14.96,1.66,30.2,0.83,45.17-1.11c3.32-0.55,6.65-0.83,9.97-1.39c10.53-1.94,21.06-4.16,31.31-7.2
			c10.25-2.77,20.5-5.54,30.48-9.42c2.22-0.83,4.71-1.66,6.93-2.49c1.11-0.55,1.94-0.83,3.05-1.39c0.28,0,0.55-0.28,0.83-0.28
			c0.55-0.28,1.11-0.55,1.38-0.55c4.43-1.94,8.87-4.16,13.02-6.37c3.6-2.22,7.48-4.16,11.08-6.65c1.11-0.55,1.94-1.11,2.77-1.66
			c0.28-0.28,0.83-0.55,0.55-0.55c0,0,0.28-0.28,0.55-0.28c0.55-0.28,0.83-0.55,1.39-0.83c0.28-0.28,0.83-0.55,1.38-0.83
			c-1.38,1.11-1.11,0.83,0.28-0.28c0,0,0,0,0.28,0c0-0.28,0.28-0.28,0.55-0.55c0.28-0.28,0.55-0.55,1.11-0.83
			c2.22-2.22,5.82-2.22,8.04,0C2312.85,547.75,2313.13,551.35,2310.91,553.57z M2141.61,541.93c-4.43,1.94-8.31,4.43-12.19,7.2
			c-0.55,0.55-1.39,1.39-2.22,1.94c0.28,0,0.28,0.28,0.55,0.28c0.83,0.55,1.94,1.38,2.77,1.66c0.55,0.28,0.83,0.55,1.39,0.83
			c0,0,0.28,0,0.55,0.28c1.11,0.28,2.49,0.83,3.88,1.11c1.39,0,2.77,0,4.16,0c1.94-0.55,3.6-0.83,5.26-1.66
			c1.66-0.55,3.05-1.39,4.71-2.49c0.83-0.55,1.94-1.11,3.05-1.94c0.28-0.28,0.55-0.55,0.83-0.83c0.28,0,0.55-0.28,0.55-0.28
			c1.94-1.66,3.88-3.33,5.82-5.27c0.28-0.28,0.83-0.83,1.11-1.11c0.28-0.28,0.28-0.55,0.55-0.83c0.28-0.28,0.28-0.28,0.28,0
			c0-0.28,0-0.28,0.28-0.55c0-0.28,0.28-0.55,0.55-0.83c-0.55-0.28-0.83-0.28-1.38-0.55c-0.55-0.28-1.11-0.28-1.66-0.28
			c-0.28-0.28-0.55-0.28-0.55-0.28c-0.55,0-1.11,0-1.66,0c-0.28,0-0.55,0-0.55,0h0.28c0,0-0.28,0-0.55,0c0,0,0,0-0.28,0
			s-0.55,0.28-0.55,0.28c-1.11,0-2.22,0-3.32,0.28C2149.37,539.44,2145.21,540.55,2141.61,541.93z M2127.76,550.52
			c0.55-0.55,1.11-0.83,1.39-1.11C2128.59,549.69,2128.31,549.97,2127.76,550.52z M2156.57,538.61c0.28,0,0.55-0.28,0.83-0.28h0.28
			C2156.57,538.61,2156.3,538.61,2156.57,538.61z M2210.05,473.77c-2.77,2.77-5.54,5.82-8.03,8.87c-2.77,3.05-5.54,5.82-8.31,8.59
			c-1.39,1.38-2.77,3.05-4.43,4.16c-0.55,0.83-1.39,1.66-1.94,2.22c-0.55,0.55-1.38,0.83-1.94,1.39c0.28-0.28,0.55-0.28,0.55-0.28
			c-0.28,0.28-0.55,0.55-0.83,0.83c-1.39,1.66-2.77,3.05-4.43,4.43c-1.39,1.39-3.32,2.49-4.99,3.88c-4.16,3.33-10.53-3.05-7.48-7.48
			c1.38-1.94,2.77-3.6,4.16-5.54c0.56-0.83,1.39-1.66,1.94-2.49c0.28-0.28,0.55-0.55,0.83-1.11c0,0,0,0,0.28,0c0,0,0,0,0-0.28
			c2.22-3.05,4.43-6.65,6.65-9.98c4.43-6.93,9.7-13.58,16.07-19.4c3.32-3.05,8.59-3.32,11.91,0
			C2213.38,465.18,2213.1,470.17,2210.05,473.77z"/>
	</g>
</g>
</svg>
