<?xml version="1.0" encoding="utf-8"?>
<!-- Generator: Adobe Illustrator 23.1.1, SVG Export Plug-In . SVG Version: 6.00 Build 0)  -->
<svg version="1.1" id="Layer_1" xmlns="http://www.w3.org/2000/svg" xmlns:xlink="http://www.w3.org/1999/xlink" x="0px" y="0px"
	 viewBox="0 0 1000 1000" style="enable-background:new 0 0 1000 1000;" xml:space="preserve">
<style type="text/css">
	.st0{fill:#FA7268;}
	.st1{fill:#FFFFFF;}
	.st2{fill:#222222;}
</style>
<path class="st0" d="M772.47,913H227.52C149.91,913,87,850.09,87,772.48V227.52C87,149.91,149.91,87,227.52,87h544.95
	C850.08,87,913,149.91,913,227.52v544.95C913,850.09,850.08,913,772.47,913z"/>
<path class="st1" d="M643.32,278.23l-195.33,0.05c-17.11,0.01-31.04,13.94-31.05,31.07l0,14.66l-14.67,0
	c-17.11,0.01-31.04,13.95-31.04,31.07l0,14.67l-14.66,0c-17.12,0.01-31.03,13.94-31.04,31.07l0.09,289.91
	c-0.01,17.13,13.92,31.06,31.04,31.04l137.23-0.04c9.58,0,18.78-3.79,25.58-10.53L555.04,676l42.66-0.01
	c17.15,0,31.08-13.93,31.06-31.06l0-14.68l14.67,0c17.14,0,31.06-13.93,31.04-31.05l-0.06-289.92
	C674.38,292.15,660.46,278.23,643.32,278.23z M558.52,630.89l-35.95,0.01c-4.3,0-8.37,0.87-12.09,2.45
	c-11.14,4.72-18.96,15.78-18.97,28.62v0.01V662l0.02,35.21l-134.86,0.04c-3.58,0-6.52-2.92-6.53-6.52l-0.08-289.91
	c0-3.6,2.94-6.54,6.53-6.54l195.34-0.04c3.6,0,6.53,2.93,6.53,6.51L558.52,630.89L558.52,630.89z M604.23,644.94
	c-0.02,3.59-2.95,6.52-6.54,6.52l-17.54,0c1.03-1.1,2.91-3.4,2.91-8.3c-0.02-60.6-0.06-242.41-0.06-242.41
	c-0.02-17.12-13.95-31.05-31.09-31.05l-156.13,0.04l0-14.68c0-3.58,2.92-6.52,6.5-6.52l195.34-0.06c3.6,0,6.54,2.94,6.55,6.53
	L604.23,644.94L604.23,644.94z M649.94,599.2c-0.02,3.59-2.94,6.52-6.53,6.52l-14.67,0l-0.05-250.72
	c-0.02-17.12-13.94-31.05-31.09-31.05L441.49,324l0-14.67c0-3.59,2.93-6.52,6.5-6.52l195.35-0.06c3.58,0,6.53,2.93,6.53,6.53
	L649.94,599.2L649.94,599.2z"/>
</svg>
