<?xml version="1.0" encoding="UTF-8" standalone="no"?>
<!DOCTYPE svg PUBLIC "-//W3C//DTD SVG 1.1//EN"
 "http://www.w3.org/Graphics/SVG/1.1/DTD/svg11.dtd">
<!-- Generated by graphviz version 2.43.0 (0)
 -->
<!-- Title: G Pages: 1 -->
<svg width="335pt" height="1013pt"
 viewBox="0.00 0.00 335.43 1013.00" xmlns="http://www.w3.org/2000/svg" xmlns:xlink="http://www.w3.org/1999/xlink">
<g id="graph0" class="graph" transform="scale(1 1) rotate(0) translate(4 1009)">
<title>G</title>
<polygon fill="white" stroke="transparent" points="-4,4 -4,-1009 331.43,-1009 331.43,4 -4,4"/>
<g id="clust1" class="cluster">
<title>cluster_Global</title>
<path fill="none" stroke="gray" d="M20,-8C20,-8 307.43,-8 307.43,-8 313.43,-8 319.43,-14 319.43,-20 319.43,-20 319.43,-985 319.43,-985 319.43,-991 313.43,-997 307.43,-997 307.43,-997 20,-997 20,-997 14,-997 8,-991 8,-985 8,-985 8,-20 8,-20 8,-14 14,-8 20,-8"/>
<text text-anchor="middle" x="163.72" y="-984.2" font-family="Times,serif" font-size="11.00" fill="gray">Global</text>
</g>
<!-- \\Router -->
<g id="node1" class="node">
<title>\\Router</title>
<polygon fill="none" stroke="black" points="268.33,-970 213.11,-970 213.11,-934 268.33,-934 268.33,-970"/>
<text text-anchor="middle" x="240.72" y="-948.7" font-family="Courier,monospace" font-size="11.00">Router</text>
</g>
<!-- \\LandingController -->
<g id="node2" class="node">
<title>\\LandingController</title>
<polygon fill="none" stroke="black" points="304.94,-916 176.5,-916 176.5,-880 304.94,-880 304.94,-916"/>
<text text-anchor="middle" x="240.72" y="-894.7" font-family="Courier,monospace" font-size="11.00">LandingController</text>
</g>
<!-- \\Controller -->
<g id="node18" class="node">
<title>\\Controller</title>
<polygon fill="none" stroke="black" points="98.02,-565 15.99,-565 15.99,-529 98.02,-529 98.02,-565"/>
<text text-anchor="middle" x="57.01" y="-543.7" font-family="Courier,monospace" font-size="11.00">Controller</text>
</g>
<!-- \\LandingController&#45;&gt;\\Controller -->
<g id="edge1" class="edge">
<title>\\LandingController&#45;&gt;\\Controller</title>
<path fill="none" stroke="black" d="M180.94,-879.9C176.96,-877.32 173.25,-874.36 170.01,-871 87.79,-785.71 65.72,-637.17 59.96,-575.31"/>
<polygon fill="none" stroke="black" points="63.43,-574.8 59.09,-565.13 56.46,-575.4 63.43,-574.8"/>
</g>
<!-- \\Error404Controller -->
<g id="node3" class="node">
<title>\\Error404Controller</title>
<polygon fill="none" stroke="black" points="308.04,-862 173.4,-862 173.4,-826 308.04,-826 308.04,-862"/>
<text text-anchor="middle" x="240.72" y="-840.7" font-family="Courier,monospace" font-size="11.00">Error404Controller</text>
</g>
<!-- \\Error404Controller&#45;&gt;\\Controller -->
<g id="edge2" class="edge">
<title>\\Error404Controller&#45;&gt;\\Controller</title>
<path fill="none" stroke="black" d="M181.5,-825.9C177.34,-823.3 173.45,-820.36 170.01,-817 99.72,-748.36 71.69,-629.13 62.2,-575.07"/>
<polygon fill="none" stroke="black" points="65.64,-574.45 60.54,-565.17 58.74,-575.61 65.64,-574.45"/>
</g>
<!-- \\User -->
<g id="node4" class="node">
<title>\\User</title>
<polygon fill="none" stroke="black" points="267.72,-808 213.72,-808 213.72,-772 267.72,-772 267.72,-808"/>
<text text-anchor="middle" x="240.72" y="-786.7" font-family="Courier,monospace" font-size="11.00">User</text>
</g>
<!-- \\connectDB -->
<g id="node5" class="node">
<title>\\connectDB</title>
<polygon fill="none" stroke="black" points="278.63,-754 202.81,-754 202.81,-718 278.63,-718 278.63,-754"/>
<text text-anchor="middle" x="240.72" y="-732.7" font-family="Courier,monospace" font-size="11.00">connectDB</text>
</g>
<!-- \\BrowseCVController -->
<g id="node6" class="node">
<title>\\BrowseCVController</title>
<polygon fill="none" stroke="black" points="308.04,-700 173.4,-700 173.4,-664 308.04,-664 308.04,-700"/>
<text text-anchor="middle" x="240.72" y="-678.7" font-family="Courier,monospace" font-size="11.00">BrowseCVController</text>
</g>
<!-- \\BrowseCVController&#45;&gt;\\Controller -->
<g id="edge3" class="edge">
<title>\\BrowseCVController&#45;&gt;\\Controller</title>
<path fill="none" stroke="black" d="M186.48,-663.96C180.75,-661.27 175.15,-658.28 170.01,-655 134.42,-632.27 100.53,-597.03 79.54,-573.03"/>
<polygon fill="none" stroke="black" points="82.1,-570.65 72.93,-565.36 76.8,-575.22 82.1,-570.65"/>
</g>
<!-- \\EditCVController -->
<g id="node7" class="node">
<title>\\EditCVController</title>
<polygon fill="none" stroke="black" points="301.34,-646 180.1,-646 180.1,-610 301.34,-610 301.34,-646"/>
<text text-anchor="middle" x="240.72" y="-624.7" font-family="Courier,monospace" font-size="11.00">EditCVController</text>
</g>
<!-- \\EditCVController&#45;&gt;\\Controller -->
<g id="edge4" class="edge">
<title>\\EditCVController&#45;&gt;\\Controller</title>
<path fill="none" stroke="black" d="M191.52,-609.91C184.27,-607.02 176.92,-604 170.01,-601 147.6,-591.28 123.11,-579.6 102.77,-569.59"/>
<polygon fill="none" stroke="black" points="104.25,-566.42 93.73,-565.12 101.15,-572.69 104.25,-566.42"/>
</g>
<!-- \\ChooseCVController -->
<g id="node8" class="node">
<title>\\ChooseCVController</title>
<polygon fill="none" stroke="black" points="308.04,-592 173.4,-592 173.4,-556 308.04,-556 308.04,-592"/>
<text text-anchor="middle" x="240.72" y="-570.7" font-family="Courier,monospace" font-size="11.00">ChooseCVController</text>
</g>
<!-- \\ChooseCVController&#45;&gt;\\Controller -->
<g id="edge5" class="edge">
<title>\\ChooseCVController&#45;&gt;\\Controller</title>
<path fill="none" stroke="black" d="M173.35,-564.14C151.75,-560.93 128.16,-557.42 107.97,-554.42"/>
<polygon fill="none" stroke="black" points="108.46,-550.96 98.06,-552.95 107.43,-557.88 108.46,-550.96"/>
</g>
<!-- \\PreviewCVController -->
<g id="node9" class="node">
<title>\\PreviewCVController</title>
<polygon fill="none" stroke="black" points="311.64,-538 169.8,-538 169.8,-502 311.64,-502 311.64,-538"/>
<text text-anchor="middle" x="240.72" y="-516.7" font-family="Courier,monospace" font-size="11.00">PreviewCVController</text>
</g>
<!-- \\PreviewCVController&#45;&gt;\\Controller -->
<g id="edge6" class="edge">
<title>\\PreviewCVController&#45;&gt;\\Controller</title>
<path fill="none" stroke="black" d="M169.98,-530.36C149.37,-533.42 127.22,-536.72 108.1,-539.56"/>
<polygon fill="none" stroke="black" points="107.49,-536.11 98.12,-541.04 108.52,-543.03 107.49,-536.11"/>
</g>
<!-- \\CV_Section -->
<g id="node10" class="node">
<title>\\CV_Section</title>
<polygon fill="none" stroke="black" points="281.73,-484 199.71,-484 199.71,-448 281.73,-448 281.73,-484"/>
<text text-anchor="middle" x="240.72" y="-462.7" font-family="Courier,monospace" font-size="11.00">CV_Section</text>
</g>
<!-- \\CV -->
<g id="node11" class="node">
<title>\\CV</title>
<polygon fill="none" stroke="black" points="267.72,-430 213.72,-430 213.72,-394 267.72,-394 267.72,-430"/>
<text text-anchor="middle" x="240.72" y="-408.7" font-family="Courier,monospace" font-size="11.00">CV</text>
</g>
<!-- \\MyCVController -->
<g id="node12" class="node">
<title>\\MyCVController</title>
<polygon fill="none" stroke="black" points="295.14,-376 186.31,-376 186.31,-340 295.14,-340 295.14,-376"/>
<text text-anchor="middle" x="240.72" y="-354.7" font-family="Courier,monospace" font-size="11.00">MyCVController</text>
</g>
<!-- \\MyCVController&#45;&gt;\\Controller -->
<g id="edge7" class="edge">
<title>\\MyCVController&#45;&gt;\\Controller</title>
<path fill="none" stroke="black" d="M186.49,-374.69C180.64,-377.64 175,-381.06 170.01,-385 123.13,-421.96 88.1,-483.85 70.56,-519.48"/>
<polygon fill="none" stroke="black" points="67.26,-518.26 66.08,-528.79 73.57,-521.3 67.26,-518.26"/>
</g>
<!-- \\UserService -->
<g id="node13" class="node">
<title>\\UserService</title>
<polygon fill="none" stroke="black" points="284.83,-322 196.61,-322 196.61,-286 284.83,-286 284.83,-322"/>
<text text-anchor="middle" x="240.72" y="-300.7" font-family="Courier,monospace" font-size="11.00">UserService</text>
</g>
<!-- \\CVService -->
<g id="node14" class="node">
<title>\\CVService</title>
<polygon fill="none" stroke="black" points="278.63,-268 202.81,-268 202.81,-232 278.63,-232 278.63,-268"/>
<text text-anchor="middle" x="240.72" y="-246.7" font-family="Courier,monospace" font-size="11.00">CVService</text>
</g>
<!-- \\LoginController -->
<g id="node15" class="node">
<title>\\LoginController</title>
<polygon fill="none" stroke="black" points="298.24,-214 183.2,-214 183.2,-178 298.24,-178 298.24,-214"/>
<text text-anchor="middle" x="240.72" y="-192.7" font-family="Courier,monospace" font-size="11.00">LoginController</text>
</g>
<!-- \\LoginController&#45;&gt;\\Controller -->
<g id="edge8" class="edge">
<title>\\LoginController&#45;&gt;\\Controller</title>
<path fill="none" stroke="black" d="M182.95,-212.83C178.21,-215.71 173.79,-219.08 170.01,-223 87.79,-308.29 65.72,-456.83 59.96,-518.69"/>
<polygon fill="none" stroke="black" points="56.46,-518.6 59.09,-528.87 63.43,-519.2 56.46,-518.6"/>
</g>
<!-- \\HomeController -->
<g id="node16" class="node">
<title>\\HomeController</title>
<polygon fill="none" stroke="black" points="295.14,-160 186.31,-160 186.31,-124 295.14,-124 295.14,-160"/>
<text text-anchor="middle" x="240.72" y="-138.7" font-family="Courier,monospace" font-size="11.00">HomeController</text>
</g>
<!-- \\HomeController&#45;&gt;\\Controller -->
<g id="edge9" class="edge">
<title>\\HomeController&#45;&gt;\\Controller</title>
<path fill="none" stroke="black" d="M186.18,-156.66C180.18,-159.98 174.58,-164.04 170.01,-169 75.56,-271.47 60.5,-450.05 58.29,-518.86"/>
<polygon fill="none" stroke="black" points="54.79,-518.85 58.04,-528.93 61.79,-519.02 54.79,-518.85"/>
</g>
<!-- \\View -->
<g id="node17" class="node">
<title>\\View</title>
<polygon fill="none" stroke="black" points="267.72,-106 213.72,-106 213.72,-70 267.72,-70 267.72,-106"/>
<text text-anchor="middle" x="240.72" y="-84.7" font-family="Courier,monospace" font-size="11.00">View</text>
</g>
<!-- \\RegisterController -->
<g id="node19" class="node">
<title>\\RegisterController</title>
<polygon fill="none" stroke="black" points="308.04,-52 173.4,-52 173.4,-16 308.04,-16 308.04,-52"/>
<text text-anchor="middle" x="240.72" y="-30.7" font-family="Courier,monospace" font-size="11.00">RegisterController</text>
</g>
<!-- \\RegisterController&#45;&gt;\\Controller -->
<g id="edge10" class="edge">
<title>\\RegisterController&#45;&gt;\\Controller</title>
<path fill="none" stroke="black" d="M179.89,-52.17C176.25,-54.74 172.9,-57.66 170.01,-61 109.14,-131.27 71.58,-425.64 61.05,-518.68"/>
<polygon fill="none" stroke="black" points="57.56,-518.43 59.93,-528.76 64.51,-519.21 57.56,-518.43"/>
</g>
</g>
</svg>
