<?xml version="1.0" encoding="UTF-8" standalone="no"?>
<!DOCTYPE svg PUBLIC "-//W3C//DTD SVG 1.1//EN"
 "http://www.w3.org/Graphics/SVG/1.1/DTD/svg11.dtd">
<!-- Generated by graphviz version 2.43.0 (0)
 -->
<!-- Title: G Pages: 1 -->
<svg width="335pt" height="1229pt"
 viewBox="0.00 0.00 335.43 1229.00" xmlns="http://www.w3.org/2000/svg" xmlns:xlink="http://www.w3.org/1999/xlink">
<g id="graph0" class="graph" transform="scale(1 1) rotate(0) translate(4 1225)">
<title>G</title>
<polygon fill="white" stroke="transparent" points="-4,4 -4,-1225 331.43,-1225 331.43,4 -4,4"/>
<g id="clust1" class="cluster">
<title>cluster_Global</title>
<path fill="none" stroke="gray" d="M20,-8C20,-8 307.43,-8 307.43,-8 313.43,-8 319.43,-14 319.43,-20 319.43,-20 319.43,-1201 319.43,-1201 319.43,-1207 313.43,-1213 307.43,-1213 307.43,-1213 20,-1213 20,-1213 14,-1213 8,-1207 8,-1201 8,-1201 8,-20 8,-20 8,-14 14,-8 20,-8"/>
<text text-anchor="middle" x="163.72" y="-1200.2" font-family="Times,serif" font-size="11.00" fill="gray">Global</text>
</g>
<!-- \\Router -->
<g id="node1" class="node">
<title>\\Router</title>
<polygon fill="none" stroke="black" points="268.33,-1186 213.11,-1186 213.11,-1150 268.33,-1150 268.33,-1186"/>
<text text-anchor="middle" x="240.72" y="-1164.7" font-family="Courier,monospace" font-size="11.00">Router</text>
</g>
<!-- \\LandingController -->
<g id="node2" class="node">
<title>\\LandingController</title>
<polygon fill="none" stroke="black" points="304.94,-1132 176.5,-1132 176.5,-1096 304.94,-1096 304.94,-1132"/>
<text text-anchor="middle" x="240.72" y="-1110.7" font-family="Courier,monospace" font-size="11.00">LandingController</text>
</g>
<!-- \\Controller -->
<g id="node17" class="node">
<title>\\Controller</title>
<polygon fill="none" stroke="black" points="98.02,-538 15.99,-538 15.99,-502 98.02,-502 98.02,-538"/>
<text text-anchor="middle" x="57.01" y="-516.7" font-family="Courier,monospace" font-size="11.00">Controller</text>
</g>
<!-- \\LandingController&#45;&gt;\\Controller -->
<g id="edge1" class="edge">
<title>\\LandingController&#45;&gt;\\Controller</title>
<path fill="none" stroke="black" d="M179.77,-1095.93C176.16,-1093.34 172.85,-1090.38 170.01,-1087 99.77,-1003.29 67.97,-651.57 60.05,-548.5"/>
<polygon fill="none" stroke="black" points="63.52,-547.95 59.28,-538.25 56.54,-548.48 63.52,-547.95"/>
</g>
<!-- \\Error404Controller -->
<g id="node3" class="node">
<title>\\Error404Controller</title>
<polygon fill="none" stroke="black" points="308.04,-1078 173.4,-1078 173.4,-1042 308.04,-1042 308.04,-1078"/>
<text text-anchor="middle" x="240.72" y="-1056.7" font-family="Courier,monospace" font-size="11.00">Error404Controller</text>
</g>
<!-- \\Error404Controller&#45;&gt;\\Controller -->
<g id="edge2" class="edge">
<title>\\Error404Controller&#45;&gt;\\Controller</title>
<path fill="none" stroke="black" d="M179.85,-1041.86C176.22,-1039.29 172.88,-1036.35 170.01,-1033 106,-958.24 70.29,-644.63 60.67,-548.28"/>
<polygon fill="none" stroke="black" points="64.14,-547.74 59.68,-538.13 57.17,-548.43 64.14,-547.74"/>
</g>
<!-- \\User -->
<g id="node4" class="node">
<title>\\User</title>
<polygon fill="none" stroke="black" points="267.72,-1024 213.72,-1024 213.72,-988 267.72,-988 267.72,-1024"/>
<text text-anchor="middle" x="240.72" y="-1002.7" font-family="Courier,monospace" font-size="11.00">User</text>
</g>
<!-- \\connectDB -->
<g id="node5" class="node">
<title>\\connectDB</title>
<polygon fill="none" stroke="black" points="278.63,-970 202.81,-970 202.81,-934 278.63,-934 278.63,-970"/>
<text text-anchor="middle" x="240.72" y="-948.7" font-family="Courier,monospace" font-size="11.00">connectDB</text>
</g>
<!-- \\BrowseCVController -->
<g id="node6" class="node">
<title>\\BrowseCVController</title>
<polygon fill="none" stroke="black" points="308.04,-916 173.4,-916 173.4,-880 308.04,-880 308.04,-916"/>
<text text-anchor="middle" x="240.72" y="-894.7" font-family="Courier,monospace" font-size="11.00">BrowseCVController</text>
</g>
<!-- \\BrowseCVController&#45;&gt;\\Controller -->
<g id="edge3" class="edge">
<title>\\BrowseCVController&#45;&gt;\\Controller</title>
<path fill="none" stroke="black" d="M180.85,-879.99C176.89,-877.38 173.21,-874.4 170.01,-871 81.77,-777.24 63.05,-613.91 59.07,-548.39"/>
<polygon fill="none" stroke="black" points="62.57,-548.18 58.54,-538.39 55.58,-548.56 62.57,-548.18"/>
</g>
<!-- \\EditCVController -->
<g id="node7" class="node">
<title>\\EditCVController</title>
<polygon fill="none" stroke="black" points="301.34,-862 180.1,-862 180.1,-826 301.34,-826 301.34,-862"/>
<text text-anchor="middle" x="240.72" y="-840.7" font-family="Courier,monospace" font-size="11.00">EditCVController</text>
</g>
<!-- \\EditCVController&#45;&gt;\\Controller -->
<g id="edge4" class="edge">
<title>\\EditCVController&#45;&gt;\\Controller</title>
<path fill="none" stroke="black" d="M181.05,-825.8C177.04,-823.24 173.3,-820.32 170.01,-817 93.84,-740.15 68.63,-606.47 61.01,-548.35"/>
<polygon fill="none" stroke="black" points="64.44,-547.58 59.75,-538.08 57.49,-548.44 64.44,-547.58"/>
</g>
<!-- \\ChooseCVController -->
<g id="node8" class="node">
<title>\\ChooseCVController</title>
<polygon fill="none" stroke="black" points="308.04,-808 173.4,-808 173.4,-772 308.04,-772 308.04,-808"/>
<text text-anchor="middle" x="240.72" y="-786.7" font-family="Courier,monospace" font-size="11.00">ChooseCVController</text>
</g>
<!-- \\ChooseCVController&#45;&gt;\\Controller -->
<g id="edge5" class="edge">
<title>\\ChooseCVController&#45;&gt;\\Controller</title>
<path fill="none" stroke="black" d="M181.98,-771.95C177.67,-769.35 173.61,-766.38 170.01,-763 105.69,-702.57 75.15,-598 63.68,-548.09"/>
<polygon fill="none" stroke="black" points="67.09,-547.31 61.51,-538.3 60.25,-548.82 67.09,-547.31"/>
</g>
<!-- \\PreviewCVController -->
<g id="node9" class="node">
<title>\\PreviewCVController</title>
<polygon fill="none" stroke="black" points="311.64,-754 169.8,-754 169.8,-718 311.64,-718 311.64,-754"/>
<text text-anchor="middle" x="240.72" y="-732.7" font-family="Courier,monospace" font-size="11.00">PreviewCVController</text>
</g>
<!-- \\PreviewCVController&#45;&gt;\\Controller -->
<g id="edge6" class="edge">
<title>\\PreviewCVController&#45;&gt;\\Controller</title>
<path fill="none" stroke="black" d="M183.05,-717.94C178.4,-715.32 173.97,-712.36 170.01,-709 117.28,-664.35 83.1,-588.25 67.61,-547.57"/>
<polygon fill="none" stroke="black" points="70.83,-546.2 64.08,-538.03 64.27,-548.63 70.83,-546.2"/>
</g>
<!-- \\TemplateCV -->
<g id="node10" class="node">
<title>\\TemplateCV</title>
<polygon fill="none" stroke="black" points="281.73,-700 199.71,-700 199.71,-664 281.73,-664 281.73,-700"/>
<text text-anchor="middle" x="240.72" y="-678.7" font-family="Courier,monospace" font-size="11.00">TemplateCV</text>
</g>
<!-- \\CV_Section -->
<g id="node11" class="node">
<title>\\CV_Section</title>
<polygon fill="none" stroke="black" points="281.73,-646 199.71,-646 199.71,-610 281.73,-610 281.73,-646"/>
<text text-anchor="middle" x="240.72" y="-624.7" font-family="Courier,monospace" font-size="11.00">CV_Section</text>
</g>
<!-- \\CV -->
<g id="node12" class="node">
<title>\\CV</title>
<polygon fill="none" stroke="black" points="267.72,-592 213.72,-592 213.72,-556 267.72,-556 267.72,-592"/>
<text text-anchor="middle" x="240.72" y="-570.7" font-family="Courier,monospace" font-size="11.00">CV</text>
</g>
<!-- \\MyCVController -->
<g id="node13" class="node">
<title>\\MyCVController</title>
<polygon fill="none" stroke="black" points="295.14,-538 186.31,-538 186.31,-502 295.14,-502 295.14,-538"/>
<text text-anchor="middle" x="240.72" y="-516.7" font-family="Courier,monospace" font-size="11.00">MyCVController</text>
</g>
<!-- \\MyCVController&#45;&gt;\\Controller -->
<g id="edge7" class="edge">
<title>\\MyCVController&#45;&gt;\\Controller</title>
<path fill="none" stroke="black" d="M186.18,-520C161.54,-520 132.47,-520 108.24,-520"/>
<polygon fill="none" stroke="black" points="108.19,-516.5 98.19,-520 108.19,-523.5 108.19,-516.5"/>
</g>
<!-- \\LoginController -->
<g id="node14" class="node">
<title>\\LoginController</title>
<polygon fill="none" stroke="black" points="298.24,-484 183.2,-484 183.2,-448 298.24,-448 298.24,-484"/>
<text text-anchor="middle" x="240.72" y="-462.7" font-family="Courier,monospace" font-size="11.00">LoginController</text>
</g>
<!-- \\LoginController&#45;&gt;\\Controller -->
<g id="edge8" class="edge">
<title>\\LoginController&#45;&gt;\\Controller</title>
<path fill="none" stroke="black" d="M182.72,-482.94C158.68,-490.08 130.94,-498.32 107.74,-505.22"/>
<polygon fill="none" stroke="black" points="106.69,-501.88 98.1,-508.08 108.68,-508.59 106.69,-501.88"/>
</g>
<!-- \\HomeController -->
<g id="node15" class="node">
<title>\\HomeController</title>
<polygon fill="none" stroke="black" points="295.14,-430 186.31,-430 186.31,-394 295.14,-394 295.14,-430"/>
<text text-anchor="middle" x="240.72" y="-408.7" font-family="Courier,monospace" font-size="11.00">HomeController</text>
</g>
<!-- \\HomeController&#45;&gt;\\Controller -->
<g id="edge9" class="edge">
<title>\\HomeController&#45;&gt;\\Controller</title>
<path fill="none" stroke="black" d="M188.4,-430.13C182.09,-432.87 175.83,-435.84 170.01,-439 140.28,-455.16 109.33,-478.08 87.51,-495.43"/>
<polygon fill="none" stroke="black" points="85.22,-492.78 79.62,-501.77 89.61,-498.23 85.22,-492.78"/>
</g>
<!-- \\View -->
<g id="node16" class="node">
<title>\\View</title>
<polygon fill="none" stroke="black" points="267.72,-376 213.72,-376 213.72,-340 267.72,-340 267.72,-376"/>
<text text-anchor="middle" x="240.72" y="-354.7" font-family="Courier,monospace" font-size="11.00">View</text>
</g>
<!-- \\RegisterController -->
<g id="node18" class="node">
<title>\\RegisterController</title>
<polygon fill="none" stroke="black" points="308.04,-322 173.4,-322 173.4,-286 308.04,-286 308.04,-322"/>
<text text-anchor="middle" x="240.72" y="-300.7" font-family="Courier,monospace" font-size="11.00">RegisterController</text>
</g>
<!-- \\RegisterController&#45;&gt;\\Controller -->
<g id="edge10" class="edge">
<title>\\RegisterController&#45;&gt;\\Controller</title>
<path fill="none" stroke="black" d="M183.05,-322.06C178.4,-324.68 173.97,-327.64 170.01,-331 117.28,-375.65 83.1,-451.75 67.61,-492.43"/>
<polygon fill="none" stroke="black" points="64.27,-491.37 64.08,-501.97 70.83,-493.8 64.27,-491.37"/>
</g>
<!-- \\TestdbController -->
<g id="node19" class="node">
<title>\\TestdbController</title>
<polygon fill="none" stroke="black" points="301.34,-268 180.1,-268 180.1,-232 301.34,-232 301.34,-268"/>
<text text-anchor="middle" x="240.72" y="-246.7" font-family="Courier,monospace" font-size="11.00">TestdbController</text>
</g>
<!-- \\TestdbController&#45;&gt;\\Controller -->
<g id="edge11" class="edge">
<title>\\TestdbController&#45;&gt;\\Controller</title>
<path fill="none" stroke="black" d="M181.98,-268.05C177.67,-270.65 173.61,-273.62 170.01,-277 105.69,-337.43 75.15,-442 63.68,-491.91"/>
<polygon fill="none" stroke="black" points="60.25,-491.18 61.51,-501.7 67.09,-492.69 60.25,-491.18"/>
</g>
<!-- \\TemplateController2 -->
<g id="node20" class="node">
<title>\\TemplateController2</title>
<polygon fill="none" stroke="black" points="311.64,-214 169.8,-214 169.8,-178 311.64,-178 311.64,-214"/>
<text text-anchor="middle" x="240.72" y="-192.7" font-family="Courier,monospace" font-size="11.00">TemplateController2</text>
</g>
<!-- \\TemplateController2&#45;&gt;\\Controller -->
<g id="edge12" class="edge">
<title>\\TemplateController2&#45;&gt;\\Controller</title>
<path fill="none" stroke="black" d="M181.05,-214.2C177.04,-216.76 173.3,-219.68 170.01,-223 93.84,-299.85 68.63,-433.53 61.01,-491.65"/>
<polygon fill="none" stroke="black" points="57.49,-491.56 59.75,-501.92 64.44,-492.42 57.49,-491.56"/>
</g>
<!-- \\TemplateController -->
<g id="node21" class="node">
<title>\\TemplateController</title>
<polygon fill="none" stroke="black" points="308.04,-160 173.4,-160 173.4,-124 308.04,-124 308.04,-160"/>
<text text-anchor="middle" x="240.72" y="-138.7" font-family="Courier,monospace" font-size="11.00">TemplateController</text>
</g>
<!-- \\TemplateController&#45;&gt;\\Controller -->
<g id="edge13" class="edge">
<title>\\TemplateController&#45;&gt;\\Controller</title>
<path fill="none" stroke="black" d="M180.85,-160.01C176.89,-162.62 173.21,-165.6 170.01,-169 81.77,-262.76 63.05,-426.09 59.07,-491.61"/>
<polygon fill="none" stroke="black" points="55.58,-491.44 58.54,-501.61 62.57,-491.82 55.58,-491.44"/>
</g>
<!-- \\CVService -->
<g id="node22" class="node">
<title>\\CVService</title>
<polygon fill="none" stroke="black" points="278.63,-106 202.81,-106 202.81,-70 278.63,-70 278.63,-106"/>
<text text-anchor="middle" x="240.72" y="-84.7" font-family="Courier,monospace" font-size="11.00">CVService</text>
</g>
<!-- \\UserService -->
<g id="node23" class="node">
<title>\\UserService</title>
<polygon fill="none" stroke="black" points="284.83,-52 196.61,-52 196.61,-16 284.83,-16 284.83,-52"/>
<text text-anchor="middle" x="240.72" y="-30.7" font-family="Courier,monospace" font-size="11.00">UserService</text>
</g>
</g>
</svg>
