<svg width="2388" height="699" fill="none" xmlns="http://www.w3.org/2000/svg"><path fill-rule="evenodd" clip-rule="evenodd" d="M1259.64 213.53s2.15-14.21 18.1-10.46c-7.51-2.95-14.48-2.41-18.23 2.68 0 .02-.07-.04-.21-.14-1.36-1-9.09-6.66-17.49-1.06 15.02-3.49 17.83 8.98 17.83 8.98zm-36.07 22.25s1.75-11.8 15.02-8.71c-6.17-2.41-12.07-2.01-15.15 2.28 0 0-7.11-6.17-14.89-1.07 12.61-2.82 15.02 7.5 15.02 7.5zm-227.14-6.3c-13.28-3.08-15.02 8.72-15.02 8.72s-2.41-10.33-15.02-7.51c7.78-5.1 14.88 1.07 14.88 1.07 3.09-4.29 8.99-4.69 15.16-2.28z" fill="#CFD6E6"/><path d="M1555.72 4.73l.99-.1-.99.1zm-1.09-.9l.09 1-.09-1zm31.53 312.6l.99-.1-.99.1zm-.9 1.1l.1.99-.1-1zm-1.09-.9l-1 .1 1-.1zm-30.44-311.7l.99-.1-.99.1zm186.83 236.95l.25.97-.25-.97zm.71-1.22l.96-.26-.96.26zm-158.53 43.19l-.26-.97.26.97zm-1.23-.71l.97-.26-.97.26zm.71-1.23l-.25-.96.25.96zm157.82-41.96l.26.97-.26-.97zM1556.71 4.63a2 2 0 0 0-2.18-1.8l.19 2 1.99-.2zm30.44 311.7l-30.44-311.7-1.99.2 30.44 311.7 1.99-.2zm-1.79 2.19a2 2 0 0 0 1.79-2.19l-1.99.2.2 1.99zm-2.19-1.8a2 2 0 0 0 2.19 1.8l-.2-1.99-1.99.2zm-30.44-311.7l30.44 311.7 1.99-.19-30.44-311.7-1.99.2zm1.8-2.18a2 2 0 0 0-1.8 2.18l1.99-.2-.19-1.98zm186.28 240a2 2 0 0 0 1.42-2.44l-1.93.52.51 1.93zm-157.82 41.97l157.82-41.96-.51-1.93-157.82 41.96.51 1.93zm-2.44-1.42a2 2 0 0 0 2.44 1.42l-.51-1.93-1.93.51zm1.42-2.44a2 2 0 0 0-1.42 2.44l1.93-.51-.51-1.93zm157.82-41.97l-157.82 41.97.51 1.93 157.82-41.96-.51-1.94zm2.44 1.42a2 2 0 0 0-2.44-1.42l.51 1.94 1.93-.52z" fill="#C7CDE2"/><path d="M1587.42 282.64l.25.97-.25-.97zm.72-1.22l.97-.24-.97.24zm-5.95 2.56l.25.97-.25-.97zm-1.22-.72l-.96.25.96-.25zm.72-1.22l-.24-.97.24.97zm5.23-1.34l-.24-.96.24.96zm153.5-38.82l.25.97-.25-.97zm-5.63 1.48l.25.97-.25-.97zm-1.22-.72l.97-.25-.97.25zm.71-1.22l.26.97-.26-.97zm5.63-1.47l-.25-.97.25.97zm-152.24 43.66a2 2 0 0 0 1.44-2.43l-1.94.5.5 1.93zm-5.23 1.34l5.23-1.34-.5-1.94-5.23 1.34.5 1.94zm-2.43-1.44a2 2 0 0 0 2.43 1.44l-.5-1.94-1.93.5zm1.44-2.44a2 2 0 0 0-1.44 2.44l1.93-.5-.49-1.94zm5.23-1.33l-5.23 1.33.49 1.94 5.23-1.34-.49-1.94zm2.43 1.44a2 2 0 0 0-2.43-1.44l.49 1.93 1.94-.5zm151.56-38.33a2 2 0 0 0 1.43-2.44l-1.93.5.5 1.94zm-5.63 1.48l5.63-1.48-.5-1.93-5.63 1.47.5 1.94zm-2.44-1.43a2 2 0 0 0 2.44 1.43l-.5-1.94-1.94.5zm1.43-2.44a2 2 0 0 0-1.43 2.44l1.94-.5-.51-1.94zm5.63-1.48l-5.63 1.48.51 1.93 5.63-1.47-.51-1.94zm2.44 1.43a2 2 0 0 0-2.44-1.43l.51 1.94 1.93-.51z" fill="#505D7F"/><path d="M1543.5 73.29c-6.83 12.73-15.15 29.76-24.94 51.07-9.78 21.32-5.63 42.9 12.47 64.76l12.47-71.6V73.3z" fill="#AFB8D2"/><path d="M1518.3 125.3c-12.21 21.32-18.51 41.7-19.04 61-.27 12.87-.14 31.5 2.81 52.96.94 7.24 5.36 19.44 13.28 36.73 7.24.27 14.34-.67 21.05-2.81 6.7-2.28 19.44-8.98 38.48-20.38a13075.56 13075.56 0 0 1-40.36-58.05c-9.12-13.14-14.48-36.33-16.22-69.45z" fill="#C7CDE2"/><path d="M1555.48 0c-1.61 0-18.24 48.67-18.24 71.86 0 15.55 9.66 37.4 28.96 65.96-5.09-27.75-8.31-49.47-9.65-65.42-2.28-24 .54-72.4-1.07-72.4z" fill="#D5DBF1"/><path d="M1534.83 147.34c3.62 50.54 18.23 94.65 44.11 132.05l160.77-43.03c-62.88-25.88-105.39-49.2-127.65-69.98-33.52-31.1-61.95-58.46-74.15-105.65 0 3.89-6.7 30.03-3.08 86.6z" fill="#DDE3F0"/><path d="M1556.8 21.31h.6-.6zm-.6-.6l-.01-.6.01.6zm1 128.9h-.6.6zm-.6.6v-.6.6zm-.6-.59h.6-.6zm-.4-128.3h-.6.6zm1.6 129.8l.6.04-.6-.03zm-.57-.63l-.03.6.03-.6zm-8.82 166.88l.6.03-.6-.03zm-.63.56l.03-.6-.03.6zm-.57-.63l.6.03-.6-.03zm9.39-166.24l.6.03-.6-.03zm1.4-129.75c0-.66-.54-1.2-1.21-1.2l.01 1.2h1.2zm.4 128.3l-.4-128.3h-1.2l.4 128.3h1.2zm-1.2 1.2c.67 0 1.2-.53 1.2-1.2h-1.2v1.2zm-1.2-1.19c0 .66.54 1.2 1.2 1.2v-1.2h-1.2zm-.4-128.3l.4 128.3h1.2l-.4-128.3h-1.2zm1.19-1.2a1.2 1.2 0 0 0-1.19 1.2h1.2l-.01-1.2zm1.61 131.04a1.2 1.2 0 0 0-1.13-1.27l-.07 1.2 1.2.07zm-9.39 166.24l9.39-166.24-1.2-.07-9.39 166.24 1.2.07zm-1.26 1.13a1.2 1.2 0 0 0 1.26-1.13l-1.2-.07-.06 1.2zm-1.13-1.26a1.2 1.2 0 0 0 1.13 1.26l.06-1.2-1.19-.06zm9.38-166.24l-9.38 166.24 1.19.06 9.39-166.24-1.2-.06zm1.27-1.14a1.2 1.2 0 0 0-1.27 1.14l1.2.06.07-1.2z" fill="#C7CDE2"/><path d="M1561.56 301.11l2.15 6.44 6.7-.4-2.41-8.72-6.44 2.68z" fill="#0F141F"/><path d="M1497.6 278.59l-6.17.4-15.82 6.03c-.54.14-.8.8-.67 1.35l.67 1.6 22.53-1.34s1.47-3.62-.54-8.04z" fill="#A86D4F"/><path d="M1498.67 286.63l-23.46 1.34a.29.29 0 0 1-.27-.26l-.13-.94c0-.14.13-.27.26-.27l23.47-1.34c.13 0 .27.13.27.27l.13.94c0 .13-.13.26-.27.26zm-9.25-12.6l2.01 4.96 6.17-.4-.94-5.63-7.24 1.07zm18.64-60.73l-2.01-4.56 7.37-2.55 2.42 8.18-7.78-1.07z" fill="#0F141F"/><path d="M1508.06 211.29s-29.9 3.48-35.13 5.36c-2.55.94-3.49 5.23-2.41 8.98 1.07 3.49 15.01 41.43 17.43 47.73.13.54.67.8 1.2.8l7.24-.4c2.95-.8-.4-6.16-7.24-39.95-.26-1.2-.26-2.41.94-2.41 18.1-.27 36.34-4.7 36.34-4.7s-1.48-17.02-18.37-15.41z" fill="#0F141F"/><path d="M1510.47 208.34s6.17-2.82 17.97-7.64c2.95 1.47 7.38 10.45 9.66 18.23 4.42 11 30.97 78.3 31.77 83.66 0 .53-.26 1.07-.8 1.07l-6.84.27c-.4 0-.67-.14-.8-.54-3.09-6.16-35.27-65.96-42.64-80.7-.27-.4-2.28-.81-2.28-.81-1.08-.8-4.29-7.24-6.04-13.54z" fill="#505D7F"/><path d="M1482.18 282.48l.4 1.07 7.65-2.68-.67-1.07-7.38 2.68z" fill="#0F141F"/><path d="M1563.71 307.55c-1.75 2-2.69 4.56-4.03 7.37l15.83-.67c-1.75-4.15-4.03-6.43-4.97-7.1l-6.83.4z" fill="#A86D4F"/><path fill-rule="evenodd" clip-rule="evenodd" d="M1570.54 309.56l-6.43.27c-.29.28-.54.65-.77.99-.2.29-.39.56-.57.75-.14.13 0 .27.13.27l9.12-.4c.13 0 .13-.14.13-.27-.4-.67-.93-1.2-1.47-1.61h-.14zm-11.39 6.7l16.36-.67c.13 0 .26-.13.26-.27v-.94a.28.28 0 0 0-.26-.26l-16.36.67a.29.29 0 0 0-.27.26v.94c0 .14.13.27.27.27z" fill="#0F141F"/><path d="M1466.22 163.16s-3.88-4.83-3.35-6.17c.67-1.34 8.58-.67 8.58-.67l-.8 6.7-4.43.14z" fill="#FFA078"/><path d="M1471.45 162.22l5.77 20.11 19.31-8.98-.81 14.07c-9.92 4.3-21.58 6.98-21.58 6.98s-5.23 2-5.37-2.69l-2.81-28.82 5.49-.67z" fill="#FFA078"/><path d="M1475.07 183.8l1.88-2a.4.4 0 0 1 .54 0l.13.13.54 3.22c0 .13 0 .26-.14.26-.13 0-.26 0-.26-.13l-.94-3.08.67.13-2.15 1.74h-.4s0-.13.13-.26z" fill="#F0715D"/><path d="M1486.74 190.64c2.82-.94 5.9-2.14 8.85-3.35l.8-14.08-13.14 6.17 3.49 11.26z" fill="#3B77D1"/><path d="M1491.84 145.86l-1.08 13.14c0 .4.27.67.67.67h2.01s-.4 7.78 1.48 7.78 11.13-3.75 11.13-3.75-.27-13.81-.67-16.1c-.27-2.27-11.13-4.01-13.54-1.74z" fill="#FFA078"/><path d="M1491.84 157.26l-36.88 1.6-.13-3.75 36.87-1.47c.27 0 .67.13.67.4.27.94.4 1.88.14 2.82-.14.13-.41.4-.67.4z" fill="#A86D4F"/><path d="M1475.8 154.13l4.42-.18.16 3.75-4.42.19-.16-3.75z" fill="#0F141F"/><path d="M1447.18 160.48c1.48 0 2.69-1.48 2.69-3.35 0-1.88-1.21-3.36-2.69-3.36-1.47 0-1.34 1.48-1.34 3.36 0 1.87-.13 3.35 1.34 3.35z" fill="#2196F3"/><path d="M1476.82 159.4l-28.97 1.21c-.53 0-1.07-.4-1.07-1.07l-.13-4.7c0-.53.4-1.07 1.07-1.07l28.96-1.2c.27 0 .54.27.54.53l.27 5.77c-.27.27-.4.53-.67.53z" fill="#A86D4F"/><path d="M1493.58 156.19c.22 0 .4-.36.4-.8 0-.45-.18-.81-.4-.81-.22 0-.4.36-.4.8 0 .45.18.8.4.8z" fill="#0F141F"/><path d="M1506.45 210.08c-.27 0-.54-.13-.67-.27-.67-.53-1.21-2.68-1.61-3.62-.53-1.2-1.07-2.41-1.61-3.75l-2.81-7.24c-.27.4-4.56-7.37-5.77-10.46-.94-2.54-1.74-5.36-.67-8.04 1.88-4.42 7.51-5.9 11.67-7.5 3.75-1.35 7.91-2.69 11.93-2.42 4.83.4 11.53 29.9 15.55 38.74-.67.8-25.2 4.7-26.01 4.56z" fill="#4B8EF4"/><path d="M1495.86 159.8c.67 0 1.2-.26 1.74-.66s.94-.94 1.07-1.48l.14-.13.13.13a2.94 2.94 0 0 1-1.07 1.75 5 5 0 0 1-1.88.93c-.13 0-.27 0-.27-.13 0-.14 0-.4.14-.4z" fill="#0F141F"/><path d="M1507.93 167.72c-1.88-3.76-2.02-9.92-2.02-9.92s-4.55 3.08-8.18 3.35a22.51 22.51 0 0 0 2.02 9.92c.13.13 0 .4-.14.53 0 0-.13 0-.27.14-1.07 3.35.54 6.57 4.83 3.89 4.29-2.69 6.3-8.05 6.3-8.05-.53.14-1.07.27-1.47.4-.4.14-.94.14-1.07-.26z" fill="#FFA078"/><path d="M1498.27 166.38a20.81 20.81 0 0 0 3.89-1.75c.67-.26 1.21.54.8 1.08l-4.02 3.08c-.27-.54-.4-.8-.67-2.41z" fill="#0F141F"/><path d="M1469.71 157.26l.4-1.34.27-1.2c0-.14.14-.28.14-.54l.4-.8c.27-.68 1.2-.81 1.61-.41l-.27 2.14v4.43l-.81 2.55-3.35.67c-.4-1.21-.94-2.42-.67-3.35.27-1.61 2.28-2.15 2.28-2.15zm-7.24-3.08c.13.4.54.53.94.53h.94v.27c.13.4.53.8 1.07.67l2.28-.27c.54 0 .94-.53.94-1.07v-.27h.53c.68 0 1.08-.67.81-1.34l-.13-.4c-.14-.54-.81-.4-1.21-.4l-6.04.8c-.67 0-.4.8-.13 1.48z" fill="#FFA078"/><path d="M1464.35 154.71l-.54-2m2.28-.28l.54 2.95m1.47-3.22l.54 1.75" stroke="#F0715D" stroke-width=".53" stroke-linecap="round"/><path d="M1448.53 161.15h-1.48c-.13 0-.27-.14-.27-.27l-.27-7.24c0-.13.14-.27.27-.27h1.48c.13 0 .27.14.27.27l.26 7.24c0 .13-.13.27-.26.27zm50.55-6.3h-.54c-.27 0-.4-.14-.54-.4 0-.54-.13-1.48-.26-2.42-5.37-.67-6.17-1.47-6.84-2.01-2.28-1.74-3.76-5.23-.54-5.36-.67-5.9 1.61-6.57 11.53-1.34 2.15-.8 4.29-.27 5.37 1.34 1.34 3.22.53 10.59 0 14.07-.14.94-.27 1.21-1.21 1.34h-.13c-.94 0-1.61-.53-2.02-1.34l-.8-2.14c0-.13 0-.4.13-.67.94-.8 1.48-2.68.41-3.75-1.75-1.75-4.03 0-4.3 2.14.14.4 0 .54-.26.54z" fill="#0F141F"/><path d="M1553.65 156.05l2.41-3.35c.54-.4 1.21-.67 1.88-.67.81-.4 1.74-1.2 1.74-2.01 0-.27-.67-.4-.67-.4.27 0 .54-.8.54-1.08l-.54-2.54c0-.54-.53-.94-1.2-.94l-.14-.94c-.13-.53-.67-.8-1.34-.67l-2.01.54-3.08 2.41c-2.15 6.84-1.34 10.06 2.41 9.65z" fill="#FFA078"/><path d="M1514.36 174.96c-2.81-1.21-3.08-5.23-.4-6.84 1.88-1.2 4.42-1.61 8.31-.94 7.51 1.34 18.91 4.3 18.91 4.3l6.3-17.44 5.63 2.01s-2.68 22.26-3.62 25.2c-.94 2.96-2.54 3.1-6.03 2.29-3.49-.8-20.78-4.3-20.78-4.3l-8.32-4.28z" fill="#FFA078"/><path d="M1547.62 154.04l1.61-7.1c0-.4.26-.8.67-.94l3.08-2.15c.27-.13.67-.13.94 0l2.01.8c.4.14.54.41.4.81-.13.67-.8 1.07-1.47.94l-1.48-.27-1.61 1.08s2.01 1.6 1.21 4.42c-.13.53-1.88 1.6-1.88 1.6l2.55 2.82c-2.68 1.75-4.56.14-6.03-2z" fill="#FFA078"/><path d="M1540.37 173.88l.41-2.4.53.4-2.81 1.87h-.27v-.27l2.55-2.28c.13-.13.4-.13.53 0 0 .14.14.27 0 .4l-.8 2.28c.13.14 0 .14-.14 0 0 0 .14.14 0 0z" fill="#F0715D"/><path d="M1492.77 152.97c.27-.13.41-.13.67-.27h.67c.41 0 .81.14 1.21.27.14 0 .14.13.14.27 0 .13-.14.13-.27.13-.4-.13-.67-.13-1.08-.13-.13 0-.4 0-.53.13-.14 0-.27.14-.4.14-.14.13-.41 0-.54-.14-.13 0-.13-.27.13-.4z" fill="#0F141F"/><path d="M1531.93 169.33c-3.22-.68-6.71-1.48-9.66-2.02-3.89-.67-6.43-.26-8.31.94-2.68 1.61-2.41 5.63.4 6.84l8.45 4.3 7.11 1.47 2.01-11.53z" fill="#4B8EF4"/><path d="M1554.45 143.85c.54 0 .94.14 1.48.4.13.14.4.4.54.68.13.26.13.67 0 .93-.27.54-.94.8-1.48.8s-1.07-.13-1.61-.4h.4c-.4.4-.93.81-1.47 1.21v-.53c.4.27.54.67.8 1.07a3.09 3.09 0 0 1 0 2.55c-.13.4-.4.8-.67 1.07 0 .13-.13.13-.26 0-.14 0-.14-.13 0-.27.26-.27.4-.67.53-1.07.14-.4.14-.67.14-1.07s-.14-.68-.27-1.08c0-.26-.27-.53-.54-.8-.13-.13-.13-.27 0-.54.4-.4.94-.8 1.34-1.2h.14c.13-.14.26-.14.4 0 .53.4 1.74.67 2.14-.14.14-.4 0-.67-.4-.94-.4-.27-.8-.4-1.34-.4-.13 0-.13-.13-.13-.13.13 0 .13-.14.26-.14z" fill="#F0715D"/><path d="M1557.94 144.93c.13.26.27.53.13.93 0 .14-.13.4-.26.4-.14.14-.27.14-.41.28-.53.4-.93.67-1.47.93l-.81.4c-.13 0-.26.14-.53.14s-.4-.13-.54-.13c-.27-.14-.53-.4-.67-.8 0-.14 0-.41.14-.68.13-.27.26-.27.4-.4.13-.14.4 0 .53.13.14.14 0 .4-.13.54-.13.13-.27.13-.27.27 0 .13.14.4.4.4.27.27.81 0 1.35-.27.53-.27.93-.53 1.47-.8.27-.14.4-.27.54-.54.13-.27 0-.4.13-.8-.13 0-.13 0 0 0 0-.14-.13-.14 0 0z" fill="#F0715D"/><path d="M1559.15 147.47c-.4.54-.94.67-1.34.94-.41.27-.94.54-1.48.67-.27.14-.53.14-.8.27-.41 0-.67-.13-.94-.27-.27-.13-.4-.4-.54-.8-.13-.4.14-.8.4-.8.14 0 .27 0 .27.13s0 .13-.13.26c-.4.14-.14.67.13.94.14.14.4.27.54.27.27 0 .4-.13.67-.27.4-.13.94-.4 1.34-.67.4-.26.94-.53 1.21-.8l.13-.13c.14-.14.27-.14.27 0 .4 0 .4.13.27.26z" fill="#F0715D"/><path d="M1559.55 149.08c-.4.54-.67.67-1.07.94-.41.27-.81.54-1.21.67-.27.13-.4.13-.8.27-.41 0-.54-.27-.81-.4-.13-.14-.4-.4-.4-.8 0-.41.27-.68.54-.68.13 0 .13 0 .26.13v.27c-.4.27-.26.54 0 .8.14.14.41.28.41.28.13 0 .4-.14.53-.14.4-.13.81-.4 1.21-.67.4-.27.8-.53 1.07-.8h.27v.13z" fill="#F0715D"/><path d="M1556.87 152.3a1 1 0 0 1-.94-.67c-.13-.4 0-.8.27-1.07h.27v.26c-.14.14-.27.4-.14.68.14.13.4.4.54.26.13 0 .27 0 .27.14 0 .13 0 .26-.27.4.13 0 .13 0 0 0z" fill="#F0715D"/><path d="M1518.38 181.12l7.38 4.3c-.67-2.02-1.34-4.03-2.01-5.9l-4.43-.81c-.8-.13-1.47.4-1.47 1.34 0 .4.13.8.53 1.07z" fill="#0F141F"/><path d="M1502 269.89l-.11-1.36.11 1.36zm7.57 4.03l1.18-.68-.02-.03-1.16.71zm-7.63-4.03l-.05-1.36.05 1.36zm-109.81 4.3l.05 1.35-.05-1.36zm-1.42-1.31l1.36-.06-1.36.06zm1.31-1.42l.05 1.36-.05-1.36zm109.79-4.28l.06 1.36h.04l-.1-1.37zm10.09 5.34l-1.16.7 1.16-.7zm.02.02l1.18-.68-1.18.68zm7.78 13.41l1.17-.68-1.17.68zm-.5 1.86l.68 1.18-.68-1.18zm-1.86-.5l1.18-.68-1.18.69zm243.67-4.55l-.06-1.36.06 1.36zm1.3-1.42l-1.36.06 1.36-.06zm-110.98 6.25l.06 1.36-.06-1.36zm-.01 0l-1.36.04c.01.36.16.7.43.96.27.25.62.38.99.36l-.06-1.36zm0 0l1.36-.04a1.37 1.37 0 0 0-1.41-1.32l.05 1.36zm-7.27 4.86l1.22.59-1.22-.6zm0 0l-1.23-.59 1.23.59zm-6.71 14.07l1.23.59-1.23-.59zm-1.81.65l.58-1.23-.58 1.23zm-.64-1.82l1.22.59-1.22-.59zm6.7-14.07l-1.23-.6v.01l1.23.59zm0 0l-1.22-.6h-.01l1.23.6zm9.62-6.4l.05 1.35-.05-1.36zm.01 0l.05 1.35h.01l-.06-1.36zm109.67-4.83l-.06-1.36.06 1.36zm-15.21 2.48l-1.22-.59 1.22.59zm-.63-1.82l-.59 1.23.59-1.23zm-8.75 21.4l-1.23-.6 1.23.6zm-1.82.63l.59-1.23-.59 1.23zm-.64-1.81l1.23.58-1.23-.58zm9.39-19.58l-1.23-.59 1.23.6zm8.76 1.04l1.22.6-1.22-.6zm-.64-1.81l.59-1.23-.59 1.23zm-8.75 21.39l-1.23-.59 1.23.59zm-1.81.64l-.59 1.22.59-1.22zm-.64-1.82l-1.23-.59 1.23.6zm9.38-19.57l1.23.59-1.23-.6zm-247.43-9.97a6.97 6.97 0 0 1 6.31 3.38l2.32-1.42a9.7 9.7 0 0 0-8.84-4.68l.21 2.72zm-.1 0h.1l-.21-2.72.11 2.72zm-109.82 4.3l109.82-4.3-.11-2.72-109.82 4.3.11 2.71zm-2.83-2.62a2.73 2.73 0 0 0 2.83 2.61l-.11-2.72-2.72.11zm2.62-2.82a2.73 2.73 0 0 0-2.62 2.82l2.72-.1-.1-2.72zm109.79-4.3l-109.79 4.3.1 2.71 109.8-4.28-.11-2.72zm11.31 6a12.43 12.43 0 0 0-11.36-6l.2 2.72a9.7 9.7 0 0 1 8.83 4.7l2.33-1.42zm.03.05l-.03-.05-2.33 1.42 2.36-1.37zm7.77 13.4l-7.77-13.4-2.36 1.37 7.78 13.4 2.35-1.36zm-.99 3.73a2.72 2.72 0 0 0 .99-3.72l-2.35 1.36 1.36 2.36zm-3.71-1a2.7 2.7 0 0 0 3.71 1l-1.36-2.36-2.35 1.37zm-7.77-13.38l7.77 13.39 2.35-1.37-7.77-13.4-2.35 1.38zm252.67 9.51a2.72 2.72 0 0 0 2.6-2.83l-2.72.11.12 2.72zm-109.68 4.83l109.68-4.83-.12-2.72-109.68 4.83.12 2.72zm-.01 0h.01l-.12-2.72h-.01l.12 2.72zm-1.42-1.32l2.72-.08-2.72.08zm-4.69 5.4a7.06 7.06 0 0 1 6.1-4.08l-.1-2.72a9.77 9.77 0 0 0-8.45 5.63l2.45 1.18zm0 0l-2.45-1.17 2.45 1.18zm-6.7 14.08l6.7-14.07-2.45-1.18-6.71 14.08 2.46 1.17zm-3.63 1.28c1.36.65 2.98.07 3.63-1.28l-2.46-1.17-1.17 2.45zm-1.28-3.62a2.72 2.72 0 0 0 1.28 3.63l1.17-2.46-2.45-1.17zm6.7-14.08l-6.7 14.08 2.45 1.17 6.71-14.08-2.46-1.17zm0 0l2.46 1.17-2.46-1.17zm10.8-7.18a12.48 12.48 0 0 0-10.79 7.17l2.45 1.18a9.76 9.76 0 0 1 8.44-5.63l-.1-2.72zm.01 0h-.01l.1 2.72h.01l-.1-2.72zm109.66-4.82l-109.67 4.82.12 2.72 109.67-4.83-.12-2.71zm2.84 2.6a2.73 2.73 0 0 0-2.84-2.6l.12 2.71 2.72-.11zm-16.76 1.83a2.72 2.72 0 0 0-1.28-3.63l-1.17 2.45 2.45 1.18zm-9.38 19.57l9.38-19.57-2.45-1.18-9.39 19.57 2.46 1.18zm-3.63 1.28c1.35.65 2.98.07 3.63-1.28l-2.46-1.18-1.17 2.46zm-1.28-3.63a2.72 2.72 0 0 0 1.28 3.63l1.17-2.46-2.45-1.17zm9.38-19.58l-9.38 19.58 2.45 1.17 9.39-19.57-2.46-1.18zm3.63-1.27a2.72 2.72 0 0 0-3.63 1.27l2.46 1.18 1.17-2.45zm7.58 3.5a2.72 2.72 0 0 0-1.27-3.64l-1.18 2.46 2.45 1.17zm-9.38 19.57l9.38-19.58-2.45-1.17-9.39 19.57 2.46 1.18zm-3.63 1.27c1.35.65 2.98.08 3.63-1.27l-2.46-1.18-1.17 2.45zm-1.28-3.63a2.72 2.72 0 0 0 1.28 3.63l1.17-2.45-2.45-1.18zm9.39-19.57l-9.39 19.57 2.45 1.18 9.39-19.57-2.45-1.18zm3.63-1.28a2.72 2.72 0 0 0-3.63 1.28l2.45 1.18 1.18-2.46z" fill="#DDE3F0"/><path d="M1701.76 321.7l-9.38-19.83a3.74 3.74 0 0 0-3.22-2.01l-87.16 3.88c-1.2 0-2.41.8-2.95 1.88l-4.96 9.52-59.8 2.41c-1.88 0-3.35 1.61-3.35 3.62a3.2 3.2 0 0 0 3.35 3.22l56.18-2.41-3.08 5.76 114.37-6.03z" fill="#E1E5F2"/><path d="M1756.47 297.17l-122.69 5.1c-.67 0-1.21.4-1.47.94l-4.56 10.72c-.4.8-1.08 1.34-2.01 1.34l-82.33 3.49c-.81 0-1.61-.4-2.15-1.2l-16.36-30.84a2.07 2.07 0 0 0-2.14-1.21l-122.29 4.96c-1.21.13-2.01 1.47-1.48 2.55l28.56 52.15c35.81 16.62 109.42 24.8 153.4 7.64 94.8-27.88 116.93-23.33 161.71-17.56l15.56-35.66c.4-1.21-.54-2.55-1.75-2.42z" fill="#C7CDE2"/><path d="M1427.42 345.17c35.8 16.62 109.42 24.8 153.4 7.64 97.75-25.6 117.19-21.72 161.71-17.56l4.15-9.65-322.88 12.87 3.62 6.7z" fill="#505D7F"/><path opacity=".6" d="M1524.9 286.58c-.4-.8-1.21-1.34-2.14-1.2l-122.29 5.09a1.77 1.77 0 0 0-1.61 2.55l4.29 7.77 126.44-5.23-4.69-8.98z" fill="#D6DBE8"/><path opacity=".6" d="M1464.43 336.59c-11.4-6.44-44.39-37.94-50.29-46.25h-13.4c-1.35 0-2.55 1.47-2.02 2.68l29.1 51.88 15.56 22.66c4.42-.54 32.58-24.54 21.05-30.97z" fill="#D6DBE8"/><path d="M1646.29 301.86c16.63 14.34 34.46 12.87 50.56-2.15 17.83 15.15 35.93 14.21 50.28-2.14" stroke="#fff" stroke-width="1.56"/><path fill-rule="evenodd" clip-rule="evenodd" d="M1742.17 299.04c-.81 0-1.34-.54-1.34-1.2 0-.68.53-1.21 1.34-1.21l8.04-.27c.81 0 1.34.54 1.34 1.2 0 .68-.53 1.21-1.34 1.21l-8.04.27zm-49.48 1.88c-.81 0-1.34-.54-1.34-1.2 0-.68.53-1.22 1.34-1.22l8.04-.26c.81 0 1.35.53 1.35 1.2 0 .67-.54 1.2-1.35 1.2l-8.04.28zm-50.95.94c0 .67.53 1.2 1.34 1.2l8.04-.26c.81 0 1.34-.54 1.34-1.21 0-.67-.53-1.2-1.34-1.2l-8.04.26c-.81 0-1.34.54-1.34 1.2zm-162.77 16.86a10.28 10.28 0 0 1-.8 3.62h-.05c-.1.02-.19.03-1.03-.8v.13a8.23 8.23 0 0 1-2.28 2.95c-.13 0-.13.14-.13.14-.8.67-1.61 1.2-2.68 1.74-.54.27-.94.54-1.34.8-.27.27-.4.4-.67.54-.14 0-.27-.03-.41-.07-.13-.03-.26-.06-.4-.06-.18 0-.4-.03-.63-.06a6.46 6.46 0 0 0-.84-.08c-1.21 0-2.28 0-3.22-.27h-.13a8.36 8.36 0 0 1-3.36-1.47h-.13c0-.07 0-.1-.02-.12-.01-.02-.05-.02-.12-.02-.93-.8-1.74-1.74-2.41-2.81-.13-.13-.4-.4-.54-.67-.13 0-.13 0-.26.13-.2.2-.4.32-.64.48l-.3.2c0-.33.03-.68.06-1.04.04-.4.07-.83.07-1.25 0-1.34.14-2.54.14-2.54.67.53 1.34 1.07 1.87 1.6.34.27.64.54.94.81.3.27.61.54.94.8a1 1 0 0 0-.27.07c-.1.03-.2.07-.27.07-.07.07-.19.1-.32.14a1.9 1.9 0 0 0-.35.13c.07.13.14.23.21.33.06.1.13.2.2.34.18.27.43.48.65.68l.28.25c1.35 1.08 3.36 1.61 4.83 1.21.54-.13.94-.4 1.21-.67l.1-.2c.1-.15.17-.27.17-.47v-.8c0-.54 0-.94-.14-1.48l-.57-2.76c-.7-3.43-1.71-8.33-2.11-9.84-.67.27-2.41.67-2.41.67-.27.13-.67.4-.94.67l-.27.27c-.27.4-.94.4-1.34.27h-.13s-.14-.14-.27-.14c-.67-.53-.94-1.34-.54-2 .27-.54.94-.81 1.61-.68 0 0 .13.14.27.14.27.13.8.13 1.07.13.27-.13 1.88-.54 2.55-.67-.14-.54-.4-1.74-.4-1.88 0-.1-.23-.2-.46-.3l-.21-.1s-.14-.13-.27-.13a2.7 2.7 0 0 1-1.21-1.48c-.4-.94-.13-2.01.54-2.68.13 0 .13-.13.13-.13.27-.27.54-.4.81-.54h.8c.4 0 .67 0 .94.13h.13c.94.4 1.75 1.08 1.88 2.15 0 .67-.13 1.34-.54 1.88 0 .06-.03.1-.06.13-.04.03-.07.07-.07.13-.13.14-.4.54-.4.67 0 .08.12.46.25.89l.28 1c.81-.28 2.42-.68 2.55-.68.27 0 .54-.27.81-.54.05-.05.1-.08.14-.1.07-.05.12-.08.12-.16.41-.4 1.21-.54 1.75-.14.67.54.94 1.34.53 2.01 0 .07-.03.1-.06.14-.04.03-.07.06-.07.13v.14c-.4.4-.8.53-1.34.4 0 0-.13-.14-.27-.14-.27-.13-.67-.13-1.07-.13-.11.11-1.34.4-2.06.58l-.36.09c.24.9.83 2.97 1.47 5.22.79 2.78 1.65 5.84 2.02 7.25l.08.24c.11.36.24.77.46 1.1.13.27.27.54.4.67s.27.27.54.4c.4.27.8.27 1.34.14 1.47-.27 3.08-1.75 3.75-3.36l.4-1.2c.14-.27.14-.54.14-.8a.92.92 0 0 0-.23.04c-.13.04-.29.09-.44.09-.06 0-.11.02-.18.05a.86.86 0 0 1-.36.08c.4-.8.67-1.47.94-2.28.13-.4.3-.77.47-1.14.17-.37.33-.74.47-1.14 0-.08.25.35.61.94.22.37.47.8.73 1.2.54.68.94 1.48 1.21 2.02-.23 0-.45-.04-.65-.08a2.55 2.55 0 0 0-.43-.06h-.26c0 .23-.05.4-.08.57-.03.13-.06.25-.06.37zm-13.56-15.02c.04-.02.07-.05.15-.13.29-.28.44-.63.6-1 .06-.16.13-.31.21-.47-.14-.67-.81-1.07-1.48-1.07h-.27c-.67.26-.94 1.07-.8 1.74.13.54.54.94 1.07 1.07h.4v-.13l.12-.01z" fill="#505D7F"/><path d="M1414.88 289.63c9.38 6.57 17.7 9.92 25.2 9.92 7.38 0 15.69-3.89 24.81-11.66.14-.14.27-.14.4 0v.13l-.94 12.07" stroke="#fff" stroke-width="1.56" stroke-linecap="round"/><path fill-rule="evenodd" clip-rule="evenodd" d="M1459.26 288.02c0 .67.54 1.2 1.21 1.2l7.1-.26c.54 0 1.08-.54 1.08-1.2 0-.68-.54-1.21-1.21-1.21l-7.11.26c-.53 0-1.07.54-1.07 1.21zm-47.2 2.01c0 .67.54 1.2 1.21 1.2l6.97-.26c.54 0 1.07-.54 1.07-1.2 0-.68-.53-1.21-1.2-1.21l-6.98.27c-.53 0-1.07.53-1.07 1.2z" fill="#505D7F"/><path d="M1397.04 344.55c7.5.67 17.83-12.07 12.2-18.5-2.55-2.95-6.57-4.7-10.19-5.63a5.4 5.4 0 0 1-2.82-8.45 5.5 5.5 0 0 1 8.58-.27c11.67 14.48 19.58 32.98 34.87 36.34l-42.64-3.49zm-8.85-32.05a3.35 3.35 0 1 0 0-6.7 3.35 3.35 0 0 0 0 6.7zm140.65 18.38a2.41 2.41 0 1 0 .01-4.83 2.41 2.41 0 0 0-.01 4.82zm-139.31-29.77c.88 0 1.61-.72 1.61-1.6a1.6 1.6 0 1 0-1.61 1.6zm101.23 45.32c8.85 0 20.52-4.96 28.16-11.53a3.86 3.86 0 0 1 4.43-.4 3.82 3.82 0 0 1 1.07 5.5c-2.15 2.94-6.17 7.23-13.68 10.99-12.74 6.83-19.98-4.56-19.98-4.56z" fill="#CCE8FF"/><path d="M1408.7 316.53c14.75 17.97 26.82 17.16 36.07 16.09 9.12-1.07 17.83-.67 26.01 6.97 6.57 6.17 23.6 8.58 36.74 2.41 8.32-3.89 3.49 7.64 3.49 7.64l-55.24 8.99s-33.39-6.3-47.07-42.1z" fill="#CCE8FF"/><path d="M1996.14 339.86c-76.43-14.21-209.85-27.35-298.34-10.6-65.33 12.38-173.67 26.72-252.63 16.76-127.52-16.08-159.03-32.17-304.51-32.17-145.49 0-229.3 12.06-276.9 15.42-12.33.8-26.14 2.28-40.9 3.88-14.74 1.61-92.91 11.13-139.58 11.13-109.41 0-219.1 1.34-316.98-9.78-97.89-11.13-130.74-23.33-239.35-42.1C18.34 273.63 0 296.42 0 296.42v402.2h2387.5V311.84s-314.93 42.23-391.36 28.02z" fill="#CCE8FF"/></svg>