<svg xmlns="http://www.w3.org/2000/svg" id="bg-f36c1501" width="2387.5" height="698.6" viewBox="0 0 2387.5 698.6">
    <defs>
        <style>
            .cls-1{fill:#e6d7cf}.cls-1,.cls-19,.cls-9{fill-rule:evenodd}.cls-2{fill:#e2d1c7}.cls-19,.cls-3{fill:#7f6150}.cls-4{fill:#d2bcaf}.cls-5{fill:#f1e0d5}.cls-6{fill:#f0e3dd}.cls-7,.cls-9{fill:#1f140f}.cls-8{fill:#4fa880}.cls-10{fill:#78ffb5}.cls-11{fill:#5df068}.cls-12{fill:#d1693b}.cls-13{fill:#f34f1a}.cls-14{fill:#f47f4b}.cls-15,.cls-18,.cls-20,.cls-31{fill:none}.cls-15{stroke:#5df068}.cls-15,.cls-20,.cls-31{stroke-linecap:round}.cls-15,.cls-31{stroke-width:.53px}.cls-16{fill:#f2e7e1}.cls-17{fill:#e8dcd6;opacity:.6}.cls-18,.cls-20{stroke:#fff;stroke-width:1.56px}.cls-21{fill:#ffd9cc}.cls-22{fill:#c7cde2}.cls-23{fill:#505d7f}.cls-24{fill:#0f141f}.cls-25{fill:#ffa078}.cls-26{fill:#f0715d}.cls-27{fill:#3b77d1}.cls-28{fill:#a86d4f}.cls-29{fill:#2196f3}.cls-30{fill:#4b8ef4}.cls-31{stroke:#f0715d}
        </style>
    </defs>
    <path id="Path_69" d="M1259.6 213.5s2.2-14.2 18.1-10.5c-7.5-2.9-14.5-2.4-18.2 2.7a.31.31 0 0 1-.2-.1c-1.4-1-9.1-6.7-17.5-1.1 15-3.4 17.8 9 17.8 9zm-36 22.3s1.8-11.8 15-8.7c-6.2-2.4-12.1-2-15.2 2.3 0 0-7.1-6.2-14.9-1.1 12.7-2.8 15.1 7.5 15.1 7.5zm-227.2-6.3c-13.3-3.1-15 8.7-15 8.7s-2.4-10.3-15-7.5c7.8-5.1 14.9 1.1 14.9 1.1 3.1-4.3 9-4.7 15.1-2.3z" class="cls-1" data-name="Path 69"/>
    <path id="Path_70" d="M1555.7 4.7l1-.1zm-1.1-.9l.1 1zm31.6 312.6l1-.1zm-.9 1.1l.1 1-.1-1zm-1.1-.9l-1 .1zM1553.7 4.9l1-.1zm186.9 237l.3 1zm.7-1.2l1-.3zm-158.6 43.1l-.3-1zm-1.2-.7l1-.3zm.7-1.2l-.3-1zm157.8-42l.3 1zM1556.7 4.6a2.017 2.017 0 0 0-2.2-1.8l.2 2 2-.2zm30.4 311.7L1556.7 4.6l-2 .2 30.4 311.7zm-1.7 2.2a2.017 2.017 0 0 0 1.8-2.2l-2 .2zm-2.2-1.8a2.017 2.017 0 0 0 2.2 1.8l-.2-2-2 .2zM1552.7 5l30.4 311.7 2-.2-30.4-311.7-2 .2zm1.8-2.2a2.017 2.017 0 0 0-1.8 2.2l2-.2zm186.3 240a1.94 1.94 0 0 0 1.4-2.4l-1.9.5.5 1.9zm-157.8 42l157.8-42-.5-1.9-157.8 42zm-2.4-1.4a1.94 1.94 0 0 0 2.4 1.4l-.5-1.9-1.9.5zm1.4-2.4a1.94 1.94 0 0 0-1.4 2.4l1.9-.5zm157.8-42L1582 281l.5 1.9 157.8-42zm2.4 1.4a1.94 1.94 0 0 0-2.4-1.4l.5 1.9 1.9-.5z" class="cls-2" data-name="Path 70"/>
    <path id="Path_71" d="M1587.4 282.6l.3 1zm.7-1.2l1-.2zm-5.9 2.6l.3 1zm-1.2-.7l-1 .3zm.7-1.3l-.2-1zm5.2-1.3l-.2-1zm153.5-38.8l.3 1zm-5.6 1.5l.3 1zm-1.2-.8l1-.3zm.7-1.2l.3 1zm5.6-1.5l-.3-1zm-152.2 43.7a1.94 1.94 0 0 0 1.4-2.4l-1.9.5zm-5.3 1.3l5.2-1.3-.5-1.9-5.2 1.3zm-2.4-1.4a1.94 1.94 0 0 0 2.4 1.4l-.5-1.9zm1.4-2.4a1.94 1.94 0 0 0-1.4 2.4l1.9-.5-.5-1.9zm5.3-1.4l-5.2 1.3.5 1.9 5.2-1.3-.5-1.9zm2.4 1.5a1.94 1.94 0 0 0-2.4-1.4l.5 1.9 1.9-.5zm151.6-38.4a1.94 1.94 0 0 0 1.4-2.4l-1.9.5zm-5.7 1.5l5.6-1.5-.5-1.9-5.6 1.5.5 1.9zm-2.4-1.4a1.94 1.94 0 0 0 2.4 1.4l-.5-1.9-1.9.5zm1.4-2.4a1.94 1.94 0 0 0-1.4 2.4l1.9-.5-.5-1.9zm5.7-1.5l-5.6 1.5.5 1.9 5.6-1.5-.5-1.9zm2.4 1.4a1.94 1.94 0 0 0-2.4-1.4l.5 1.9 1.9-.5z" class="cls-3" data-name="Path 71"/>
    <path id="Path_72" d="M1543.5 73.3c-6.8 12.7-15.2 29.8-24.9 51.1q-14.7 31.95 12.5 64.8l12.5-71.6V73.3z" class="cls-4" data-name="Path 72"/>
    <path id="Path_73" d="M1518.3 125.3c-12.2 21.3-18.5 41.7-19 61a337.73 337.73 0 0 0 2.8 53c.9 7.2 5.4 19.4 13.3 36.7a62.558 62.558 0 0 0 21.1-2.8c6.7-2.3 19.4-9 38.5-20.4q-20.25-28.95-40.4-58.1c-9.2-13.1-14.6-36.3-16.3-69.4z" class="cls-2" data-name="Path 73"/>
    <path id="Path_74" d="M1555.5 0c-1.6 0-18.2 48.7-18.2 71.9 0 15.6 9.7 37.4 29 66-5.1-27.8-8.3-49.5-9.7-65.4-2.3-24.1.5-72.5-1.1-72.5z" class="cls-5" data-name="Path 74"/>
    <path id="Path_75" d="M1534.8 147.3c3.6 50.5 18.2 94.6 44.1 132.1l160.8-43q-94.35-38.85-127.7-70c-33.5-31.1-61.9-58.5-74.2-105.7.1 3.9-6.6 30.1-3 86.6z" class="cls-6" data-name="Path 75"/>
    <path id="Path_76" d="M1556.8 21.3zm-.6-.6zm1 128.9zm-.6.6zm-.6-.6zm-.4-128.3zm1.6 129.8zm-.6-.6zm-8.8 166.9zm-.6.5zm-.6-.6zm9.4-166.2zm1.4-129.8a1.155 1.155 0 0 0-1.2-1.2v1.2zm.4 128.3l-.4-128.3h-1.2l.4 128.3zm-1.2 1.2a1.155 1.155 0 0 0 1.2-1.2h-1.2zm-1.2-1.2a1.155 1.155 0 0 0 1.2 1.2v-1.2zm-.4-128.3l.4 128.3h1.2l-.4-128.3h-1.2zm1.2-1.2a1.155 1.155 0 0 0-1.2 1.2h1.2zm1.6 131.1a1.3 1.3 0 0 0-1.1-1.3l-.1 1.2zm-9.4 166.2l9.4-166.2-1.2-.1-9.4 166.2zm-1.2 1.1a1.3 1.3 0 0 0 1.3-1.1l-1.2-.1zm-1.2-1.2a1.3 1.3 0 0 0 1.1 1.3l.1-1.2-1.2-.1zm9.4-166.3l-9.4 166.2 1.2.1 9.4-166.2zm1.3-1.1a1.3 1.3 0 0 0-1.3 1.1l1.2.1.1-1.2z" class="cls-2" data-name="Path 76"/>
    <path id="Path_77" d="M1561.6 301.1l2.2 6.4 6.7-.4-2.4-8.7z" class="cls-7" data-name="Path 77"/>
    <path id="Path_78" d="M1497.6 278.6l-6.2.4-15.8 6c-.5.1-.8.8-.7 1.4l.7 1.6 22.5-1.3a11.019 11.019 0 0 0-.5-8.1z" class="cls-8" data-name="Path 78"/>
    <path id="Path_79" d="M1498.7 286.6l-23.5 1.3a.319.319 0 0 1-.3-.3l-.1-.9a.319.319 0 0 1 .3-.3l23.5-1.3a.319.319 0 0 1 .3.3l.1.9q-.15.3-.3.3zm-9.3-12.6l2 5 6.2-.4-.9-5.6-7.3 1zm18.7-60.7l-2-4.6 7.4-2.6 2.4 8.2-7.8-1z" class="cls-7" data-name="Path 79"/>
    <path id="Path_80" d="M1508.1 211.3s-29.9 3.5-35.1 5.4c-2.6.9-3.5 5.2-2.4 9 1.1 3.5 15 41.4 17.4 47.7a1.206 1.206 0 0 0 1.2.8l7.2-.4c2.9-.8-.4-6.2-7.2-39.9-.3-1.2-.3-2.4.9-2.4a190.927 190.927 0 0 0 36.3-4.7s-1.5-17.1-18.3-15.5z" class="cls-7" data-name="Path 80"/>
    <path id="Path_81" d="M1510.5 208.3s6.2-2.8 18-7.6c2.9 1.5 7.4 10.4 9.7 18.2 4.4 11 31 78.3 31.8 83.7 0 .5-.3 1.1-.8 1.1l-6.8.3c-.4 0-.7-.1-.8-.5-3.1-6.2-35.3-66-42.6-80.7-.3-.4-2.3-.8-2.3-.8-1.3-.9-4.5-7.4-6.2-13.7z" class="cls-3" data-name="Path 81"/>
    <path id="Path_82" d="M1482.2 282.5l.4 1.1 7.7-2.7-.7-1.1z" class="cls-7" data-name="Path 82"/>
    <path id="Path_83" d="M1563.7 307.5c-1.8 2-2.7 4.6-4 7.4l15.8-.7c-1.8-4.1-4-6.4-5-7.1l-6.8.4z" class="cls-8" data-name="Path 83"/>
    <path id="Path_84" d="M1570.5 309.6l-6.4.3a8.744 8.744 0 0 0-.8 1 5.546 5.546 0 0 1-.6.8.192.192 0 0 0 .1.3l9.1-.4c.1 0 .1-.1.1-.3a4.629 4.629 0 0 0-1.5-1.6zm-11.3 6.7l16.4-.7a.319.319 0 0 0 .3-.3v-.9a.319.319 0 0 0-.3-.3l-16.4.7a.319.319 0 0 0-.3.3v.9a.319.319 0 0 0 .3.3z" class="cls-9" data-name="Path 84"/>
    <path id="Path_85" d="M1466.2 163.2s-3.9-4.8-3.3-6.2c.7-1.3 8.6-.7 8.6-.7l-.8 6.7-4.5.2z" class="cls-10" data-name="Path 85"/>
    <path id="Path_86" d="M1471.4 162.2l5.8 20.1 19.3-9-.8 14.1a144.9 144.9 0 0 1-21.6 7s-5.2 2-5.4-2.7l-2.8-28.8 5.5-.7z" class="cls-10" data-name="Path 86"/>
    <path id="Path_87" d="M1475.1 183.8l1.9-2a.446.446 0 0 1 .5 0l.1.1.5 3.2c0 .1 0 .3-.1.3s-.3 0-.3-.1l-.9-3.1.7.1-2.2 1.7h-.4c0 .1 0-.1.2-.2z" class="cls-11" data-name="Path 87"/>
    <path id="Path_88" d="M1486.7 190.6a88.043 88.043 0 0 0 8.8-3.4l.8-14.1-13.1 6.2 3.5 11.3z" class="cls-12" data-name="Path 88"/>
    <path id="Path_89" d="M1491.8 145.9l-1.1 13.1a.684.684 0 0 0 .7.7h2s-.4 7.8 1.5 7.8 11.1-3.8 11.1-3.8-.3-13.8-.7-16.1c-.2-2.3-11-4-13.5-1.7z" class="cls-10" data-name="Path 89"/>
    <path id="Path_90" d="M1491.8 157.3l-36.9 1.6-.1-3.8 36.9-1.5c.3 0 .7.1.7.4a4.475 4.475 0 0 1 .1 2.8.935.935 0 0 1-.7.5z" class="cls-8" data-name="Path 90"/>
    <path id="Path_91" d="M1475.8 154.1l4.4-.2.2 3.8-4.4.2-.2-3.8z" class="cls-7" data-name="Path 91"/>
    <path id="Path_92" d="M1447.2 160.5c1.5 0 2.7-1.5 2.7-3.4s-1.2-3.4-2.7-3.4-1.3 1.5-1.3 3.4c-.1 1.9-.2 3.4 1.3 3.4z" class="cls-13" data-name="Path 92"/>
    <path id="Path_93" d="M1476.8 159.4l-29 1.2a1.107 1.107 0 0 1-1.1-1.1l-.1-4.7a1.107 1.107 0 0 1 1.1-1.1l29-1.2a.536.536 0 0 1 .5.5l.3 5.8c-.3.3-.4.6-.7.6z" class="cls-8" data-name="Path 93"/>
    <path id="Path_94" d="M1493.6 156.2c.2 0 .4-.4.4-.8s-.2-.8-.4-.8-.4.4-.4.8.2.8.4.8z" class="cls-7" data-name="Path 94"/>
    <path id="Path_95" d="M1506.4 210.1a.908.908 0 0 1-.7-.3c-.7-.5-1.2-2.7-1.6-3.6-.5-1.2-1.1-2.4-1.6-3.8l-2.8-7.2c-.3.4-4.6-7.4-5.8-10.5-.9-2.5-1.7-5.4-.7-8 1.9-4.4 7.5-5.9 11.7-7.5 3.8-1.4 7.9-2.7 11.9-2.4 4.8.4 11.5 29.9 15.6 38.7-.6.8-25.1 4.7-26 4.6z" class="cls-14" data-name="Path 95"/>
    <path id="Path_96" d="M1495.9 159.8a2.609 2.609 0 0 0 1.7-.7 3.269 3.269 0 0 0 1.1-1.5l.1-.1.1.1a2.891 2.891 0 0 1-1.1 1.8 4.751 4.751 0 0 1-1.9.9c-.1 0-.3 0-.3-.1.1-.1.1-.4.3-.4z" class="cls-7" data-name="Path 96"/>
    <path id="Path_97" d="M1507.9 167.7c-1.9-3.8-2-9.9-2-9.9s-4.6 3.1-8.2 3.4a22.515 22.515 0 0 0 2 9.9c.1.1 0 .4-.1.5a.774.774 0 0 0-.3.1c-1.1 3.4.5 6.6 4.8 3.9s6.3-8.1 6.3-8.1c-.5.1-1.1.3-1.5.4a.684.684 0 0 1-1-.2z" class="cls-10" data-name="Path 97"/>
    <path id="Path_98" d="M1498.3 166.4a13.843 13.843 0 0 0 3.9-1.8c.7-.3 1.2.5.8 1.1l-4 3.1a4.755 4.755 0 0 1-.7-2.4z" class="cls-7" data-name="Path 98"/>
    <path id="Path_99" d="M1469.7 157.3l.4-1.3.3-1.2a4.332 4.332 0 0 0 .1-.5l.4-.8a1.032 1.032 0 0 1 1.6-.4l-.3 2.1v4.4l-.8 2.6-3.3.7a7.406 7.406 0 0 1-.7-3.4c.3-1.7 2.3-2.2 2.3-2.2zm-7.2-3.1c.1.4.5.5.9.5h.9v.3a.946.946 0 0 0 1.1.7l2.3-.3a1.018 1.018 0 0 0 .9-1.1v-.3h.5a.885.885 0 0 0 .8-1.3l-.1-.4c-.1-.5-.8-.4-1.2-.4l-6 .8c-.7 0-.4.8-.1 1.5z" class="cls-10" data-name="Path 99"/>
    <path id="Path_100" d="M1464.3 154.7l-.5-2m2.3-.3l.5 2.9m1.5-3.1l.5 1.8" class="cls-15" data-name="Path 100"/>
    <path id="Path_101" d="M1448.5 161.1h-1.5a.319.319 0 0 1-.3-.3l-.3-7.2a.319.319 0 0 1 .3-.3h1.5a.319.319 0 0 1 .3.3l.3 7.2a.265.265 0 0 1-.3.3zm50.6-6.3h-.5c-.3 0-.4-.1-.5-.4a12.9 12.9 0 0 0-.3-2.4c-5.4-.7-6.2-1.5-6.8-2-2.3-1.7-3.8-5.2-.5-5.4-.7-5.9 1.6-6.6 11.5-1.3 2.2-.8 4.3-.3 5.4 1.3 1.3 3.2.5 10.6 0 14.1-.1.9-.3 1.2-1.2 1.3h-.1a2.188 2.188 0 0 1-2-1.3l-.8-2.1a2.253 2.253 0 0 1 .1-.7c.9-.8 1.5-2.7.4-3.8-1.8-1.8-4 0-4.3 2.1 0 .5-.2.7-.4.6z" class="cls-7" data-name="Path 101"/>
    <path id="Path_102" d="M1553.7 156.1l2.4-3.4a3.157 3.157 0 0 1 1.9-.7c.8-.4 1.7-1.2 1.7-2 0-.3-.7-.4-.7-.4.3 0 .5-.8.5-1.1l-.5-2.5c0-.5-.5-.9-1.2-.9l-.1-.9a1.089 1.089 0 0 0-1.3-.7l-2 .5-3.1 2.4c-2.2 6.8-1.4 10.1 2.4 9.7z" class="cls-10" data-name="Path 102"/>
    <path id="Path_103" d="M1514.4 175a3.839 3.839 0 0 1-.4-6.8c1.9-1.2 4.4-1.6 8.3-.9 7.5 1.3 18.9 4.3 18.9 4.3l6.3-17.4 5.6 2s-2.7 22.3-3.6 25.2c-.9 3-2.5 3.1-6 2.3s-20.8-4.3-20.8-4.3l-8.3-4.4z" class="cls-10" data-name="Path 103"/>
    <path id="Path_104" d="M1547.6 154l1.6-7.1a.961.961 0 0 1 .7-.9l3.1-2.1a1.379 1.379 0 0 1 .9 0l2 .8c.4.1.5.4.4.8a1.146 1.146 0 0 1-1.5.9l-1.5-.3-1.6 1.1a4.213 4.213 0 0 1 1.2 4.4c-.1.5-1.9 1.6-1.9 1.6l2.6 2.8c-2.6 1.8-4.5.2-6-2z" class="cls-10" data-name="Path 104"/>
    <path id="Path_105" d="M1540.4 173.9l.4-2.4.5.4-2.8 1.9h-.3v-.3l2.6-2.3a.454.454 0 0 1 .5 0c0 .1.1.3 0 .4l-.8 2.3c.1.1 0 .1-.1 0z" class="cls-11" data-name="Path 105"/>
    <path id="Path_106" d="M1492.8 153a2.116 2.116 0 0 0 .7-.3h.7a2.662 2.662 0 0 1 1.2.3c.1 0 .1.1.1.3 0 .1-.1.1-.3.1a4.1 4.1 0 0 0-1.1-.1c-.1 0-.4 0-.5.1-.1 0-.3.1-.4.1-.1.1-.4 0-.5-.1-.2 0-.2-.3.1-.4z" class="cls-7" data-name="Path 106"/>
    <path id="Path_107" d="M1531.9 169.3c-3.2-.7-6.7-1.5-9.7-2-3.9-.7-6.4-.3-8.3.9a3.839 3.839 0 0 0 .4 6.8l8.4 4.3 7.1 1.5 2.1-11.5z" class="cls-14" data-name="Path 107"/>
    <path id="Path_108" d="M1554.4 143.9a3.071 3.071 0 0 1 1.5.4 2.1 2.1 0 0 1 .5.7 1.379 1.379 0 0 1 0 .9 1.763 1.763 0 0 1-1.5.8 2.934 2.934 0 0 1-1.6-.4h.4a9.834 9.834 0 0 1-1.5 1.2v-.5c.4.3.5.7.8 1.1a2.964 2.964 0 0 1 0 2.6 2.589 2.589 0 0 1-.7 1.1q0 .15-.3 0-.15 0 0-.3a2.219 2.219 0 0 0 .5-1.1 4.1 4.1 0 0 0 .1-1.1 2.279 2.279 0 0 0-.3-1.1c0-.3-.3-.5-.5-.8a.446.446 0 0 1 0-.5c.4-.4.9-.8 1.3-1.2h.1a.3.3 0 0 1 .4 0c.5.4 1.7.7 2.1-.1a.7.7 0 0 0-.4-.9 2.836 2.836 0 0 0-1.3-.4.1.1 0 0 1-.1-.1c.4-.2.4-.3.5-.3z" class="cls-11" data-name="Path 108"/>
    <path id="Path_109" d="M1557.9 144.9c.1.3.3.5.1.9 0 .1-.1.4-.3.4-.1.1-.3.1-.4.3a4.617 4.617 0 0 1-1.5.9l-.8.4a1.3 1.3 0 0 1-1 0c-.3-.1-.5-.4-.7-.8a2.253 2.253 0 0 1 .1-.7c.1-.3.3-.3.4-.4s.4 0 .5.1 0 .4-.1.5-.3.1-.3.3a.42.42 0 0 0 .4.4c.3.3.8 0 1.3-.3s.9-.5 1.5-.8a.821.821 0 0 0 .5-.5c.3-.1.2-.3.3-.7 0-.1-.1-.1 0 0z" class="cls-11" data-name="Path 109"/>
    <path id="Path_110" d="M1559.2 147.5a3.4 3.4 0 0 1-1.3.9 5.226 5.226 0 0 1-1.5.7 2.614 2.614 0 0 0-.8.3 1.223 1.223 0 0 1-.9-.3c-.3-.1-.4-.4-.5-.8s.1-.8.4-.8c.1 0 .3 0 .3.1s0 .1-.1.3c-.4.1-.1.7.1.9a1.332 1.332 0 0 0 .5.3c.3 0 .4-.1.7-.3a4.15 4.15 0 0 0 1.3-.7 12.473 12.473 0 0 0 1.2-.8l.1-.1c.1-.1.3-.1.3 0 .3 0 .3.1.2.3z" class="cls-11" data-name="Path 110"/>
    <path id="Path_111" d="M1559.6 149.1a2.915 2.915 0 0 1-1.1.9 7.463 7.463 0 0 1-1.2.7 4.117 4.117 0 0 0-.8.3c-.4 0-.5-.3-.8-.4a1.2 1.2 0 0 1-.4-.8.682.682 0 0 1 .5-.7c.1 0 .1 0 .3.1v.3c-.4.3-.3.5 0 .8a3.983 3.983 0 0 0 .4.3c.1 0 .4-.1.5-.1a3.744 3.744 0 0 0 1.2-.7 10.464 10.464 0 0 0 1.1-.8h.3v.1z" class="cls-11" data-name="Path 111"/>
    <path id="Path_112" d="M1556.9 152.3a.96.96 0 0 1-.9-.7 1.128 1.128 0 0 1 .3-1.1h.3v.3a.562.562 0 0 0-.1.7c.1.1.4.4.5.3.1 0 .3 0 .3.1-.2.1-.2.3-.4.4z" class="cls-11" data-name="Path 112"/>
    <path id="Path_113" d="M1518.4 181.1l7.4 4.3c-.7-2-1.3-4-2-5.9l-4.4-.8a1.266 1.266 0 0 0-1.5 1.3 1 1 0 0 0 .5 1.1z" class="cls-7" data-name="Path 113"/>
    <path id="Path_114" d="M1502 269.9l-.1-1.4zm7.6 4l1.2-.7zm-7.7-4l-.1-1.4zm-109.8 4.3l.1 1.4-.1-1.4zm-1.4-1.3l1.4-.1zm1.3-1.4l.1 1.4zm109.8-4.3l.1 1.4-.1-1.4zm10.1 5.3l-1.2.7zm0 0l1.2-.7zm7.8 13.4l1.2-.7zm-.5 1.9l.7 1.2zm-1.9-.5l1.2-.7-1.2.7zm243.7-4.5l-.1-1.4zm1.3-1.5l-1.4.1zm-111 6.3l.1 1.4zm0 0h-1.4a1.776 1.776 0 0 0 .4 1 1.284 1.284 0 0 0 1 .4zm0 0h1.4a1.344 1.344 0 0 0-1.4-1.3v1.3zm-7.2 4.8l1.2.6-1.2-.6zm0 0l-1.2-.6zm-6.8 14.1l1.2.6zm-1.8.7l.6-1.2zm-.6-1.9l1.2.6zm6.7-14l-1.2-.6zm0 0l-1.2-.6zm9.6-6.4l.1 1.4-.1-1.4zm0 0l.1 1.4-.1-1.4zm109.7-4.9l-.1-1.4zm-15.2 2.5l-1.2-.6zm-.6-1.8l-.6 1.2zm-8.8 21.4l-1.2-.6zm-1.8.6l.6-1.2zm-.7-1.8l1.2.6zm9.4-19.6l-1.2-.6 1.2.6zm8.8 1.1l1.2.6zm-.6-1.8l.6-1.2zm-8.8 21.4l-1.2-.6zm-1.8.6l-.6 1.2zm-.6-1.8l-1.2-.6 1.2.6zm9.3-19.6l1.2.6-1.2-.6zm-247.4-10a6.963 6.963 0 0 1 6.3 3.4l2.3-1.4a9.74 9.74 0 0 0-8.8-4.7zm-.1 0l-.1-2.7zm-109.8 4.3l109.8-4.3-.1-2.7-109.8 4.3.1 2.7zm-2.8-2.6a2.688 2.688 0 0 0 2.8 2.6l-.1-2.7-2.7.1zm2.6-2.8a2.688 2.688 0 0 0-2.6 2.8l2.7-.1zm109.8-4.3l-109.8 4.3.1 2.7 109.8-4.3-.1-2.7zm11.3 6a12.36 12.36 0 0 0-11.4-6l.2 2.7a9.531 9.531 0 0 1 8.8 4.7l2.4-1.4zm0 .1l-2.4 1.4 2.4-1.4zm7.8 13.4l-7.8-13.4-2.4 1.4 7.8 13.4 2.4-1.4zm-1 3.7a2.762 2.762 0 0 0 1-3.7l-2.3 1.4 1.3 2.3zm-3.7-1a2.652 2.652 0 0 0 3.7 1l-1.4-2.4-2.3 1.4zm-7.8-13.4l7.8 13.4 2.3-1.4-7.8-13.4-2.3 1.4zm252.7 9.5a2.688 2.688 0 0 0 2.6-2.8l-2.7.1zm-109.7 4.8l109.7-4.8-.1-2.7-109.7 4.8zm0 0l-.1-2.7zm-1.4-1.3l2.7-.1zm-4.7 5.4a7.073 7.073 0 0 1 6.1-4.1l-.1-2.7a9.776 9.776 0 0 0-8.4 5.6l2.4 1.2zm0 0l-2.4-1.2 2.4 1.2zm-6.7 14.1l6.7-14.1-2.4-1.2-6.7 14.1zm-3.7 1.3a2.672 2.672 0 0 0 3.6-1.3l-2.5-1.2zm-1.2-3.6a2.672 2.672 0 0 0 1.3 3.6l1.2-2.5-2.5-1.1zm6.7-14.1l-6.7 14.1 2.4 1.2 6.7-14.1zm0 0l2.5 1.2zm10.8-7.2a12.542 12.542 0 0 0-10.8 7.2l2.4 1.2a9.594 9.594 0 0 1 8.4-5.6v-2.8zm0 0l.1 2.7zm109.6-4.8l-109.7 4.8.1 2.7 109.7-4.8-.1-2.7zm2.9 2.6a2.688 2.688 0 0 0-2.8-2.6l.1 2.7zm-16.8 1.8a2.672 2.672 0 0 0-1.3-3.6l-1.2 2.5 2.5 1.1zm-9.4 19.6l9.4-19.6-2.4-1.2-9.4 19.6zm-3.6 1.3a2.7 2.7 0 0 0 3.6-1.3l-2.5-1.2zm-1.3-3.7a2.672 2.672 0 0 0 1.3 3.6l1.2-2.5-2.5-1.1zm9.4-19.5l-9.4 19.6 2.4 1.2 9.4-19.6zm3.6-1.3a2.6 2.6 0 0 0-3.6 1.3l2.5 1.2 1.1-2.5zm7.6 3.5a2.6 2.6 0 0 0-1.3-3.6l-1.2 2.5 2.5 1.1zm-9.4 19.6l9.4-19.6-2.4-1.2-9.4 19.6zm-3.6 1.2a2.7 2.7 0 0 0 3.6-1.3l-2.5-1.2-1.1 2.5zm-1.3-3.6a2.672 2.672 0 0 0 1.3 3.6l1.2-2.5-2.5-1.1zm9.4-19.6l-9.4 19.6 2.4 1.2 9.4-19.6zm3.6-1.3a2.672 2.672 0 0 0-3.6 1.3l2.4 1.2z" class="cls-6" data-name="Path 114"/>
    <path id="Path_115" d="M1701.8 321.7l-9.4-19.8a3.678 3.678 0 0 0-3.2-2l-87.2 3.9a3.318 3.318 0 0 0-2.9 1.9l-5 9.5-59.8 2.4a3.4 3.4 0 0 0-3.3 3.6 3.159 3.159 0 0 0 3.2 3.2h.2l56.2-2.4-3.1 5.8 114.3-6.1z" class="cls-16" data-name="Path 115"/>
    <path id="Path_116" d="M1756.5 297.2l-122.7 5.1a1.725 1.725 0 0 0-1.5.9l-4.6 10.7a2.188 2.188 0 0 1-2 1.3l-82.3 3.5a2.763 2.763 0 0 1-2.2-1.2l-16.4-30.8a2.087 2.087 0 0 0-2.1-1.2l-122.3 5a1.835 1.835 0 0 0-1.5 2.5l28.6 52.1c35.8 16.6 109.4 24.8 153.4 7.6 94.8-27.9 116.9-23.3 161.7-17.6l15.6-35.7a1.663 1.663 0 0 0-1.7-2.2z" class="cls-2" data-name="Path 116"/>
    <path id="Path_117" d="M1427.4 345.2c35.8 16.6 109.4 24.8 153.4 7.6 97.8-25.6 117.2-21.7 161.7-17.6l4.2-9.6-322.9 12.9 3.6 6.7z" class="cls-3" data-name="Path 117"/>
    <path id="Path_118" d="M1524.9 286.6a2.087 2.087 0 0 0-2.1-1.2l-122.3 5.1a1.774 1.774 0 0 0-1.8 1.7 1.884 1.884 0 0 0 .2.8l4.3 7.8 126.4-5.2-4.7-9z" class="cls-17" data-name="Path 118"/>
    <path id="Path_119" d="M1464.4 336.6c-11.4-6.4-44.4-37.9-50.3-46.3h-13.4c-1.3 0-2.6 1.5-2 2.7l29.1 51.9 15.6 22.7c4.4-.6 32.6-24.6 21-31z" class="cls-17" data-name="Path 119"/>
    <path id="Path_120" d="M1646.3 301.9c16.6 14.3 34.5 12.9 50.6-2.1 17.8 15.1 35.9 14.2 50.3-2.1" class="cls-18" data-name="Path 120"/>
    <path id="Path_121" d="M1742.2 299a1.2 1.2 0 1 1 0-2.4l8-.3a1.2 1.2 0 1 1 0 2.4zm-49.5 1.9a1.2 1.2 0 1 1 0-2.4l8-.3a1.2 1.2 0 1 1 0 2.4zm-51 1a1.184 1.184 0 0 0 1.3 1.2l8-.3a1.2 1.2 0 1 0 0-2.4l-8 .3a1.24 1.24 0 0 0-1.3 1.2zM1479 318.7a8.988 8.988 0 0 1-.8 3.6h-.1c-.1 0-.2 0-1-.8v.1a8.329 8.329 0 0 1-2.3 3 .1.1 0 0 0-.1.1 10.361 10.361 0 0 1-2.7 1.7 14.808 14.808 0 0 0-1.3.8 1.532 1.532 0 0 1-.7.5.6.6 0 0 1-.4-.1c-.1 0-.3-.1-.4-.1a1.268 1.268 0 0 1-.6-.1c-.3 0-.6-.1-.8-.1a10.56 10.56 0 0 1-3.2-.3h-.1a7.428 7.428 0 0 1-3.4-1.5h-.1v-.1h-.1a13.123 13.123 0 0 1-2.4-2.8 2.1 2.1 0 0 1-.5-.7c-.1 0-.1 0-.3.1-.2.2-.4.3-.6.5l-.3.2a3.4 3.4 0 0 1 .1-1c0-.4.1-.8.1-1.3 0-1.3.1-2.5.1-2.5.7.5 1.3 1.1 1.9 1.6.3.3.6.5.9.8s.6.5.9.8a.368.368 0 0 0-.3.1c-.1 0-.2.1-.3.1a.367.367 0 0 1-.3.1c-.1 0-.2.1-.3.1.1.1.1.2.2.3s.1.2.2.3a2.337 2.337 0 0 0 .7.7l.3.3a5.785 5.785 0 0 0 4.8 1.2 2.4 2.4 0 0 0 1.2-.7l.1-.2a.764.764 0 0 0 .2-.5v-.8a8.086 8.086 0 0 0-.1-1.5l-.6-2.8c-.7-3.4-1.7-8.3-2.1-9.8a21.5 21.5 0 0 1-2.4.7 2.016 2.016 0 0 0-.9.7l-.3.3a1.26 1.26 0 0 1-1.3.3h-.1a.438.438 0 0 0-.3-.1 1.478 1.478 0 0 1-.5-2 1.562 1.562 0 0 1 1.6-.7.438.438 0 0 0 .3.1 4.1 4.1 0 0 0 1.1.1c.3-.1 1.9-.5 2.6-.7-.1-.5-.4-1.7-.4-1.9 0-.1-.2-.2-.5-.3l-.2-.1a.438.438 0 0 0-.3-.1 2.555 2.555 0 0 1-1.2-1.5 2.656 2.656 0 0 1 .5-2.7.1.1 0 0 0 .1-.1 1.769 1.769 0 0 1 .8-.5h.8a2.22 2.22 0 0 1 .9.1h.1a2.87 2.87 0 0 1 1.9 2.1 3.2 3.2 0 0 1-.5 1.9c0 .1 0 .1-.1.1l-.1.1a1.612 1.612 0 0 0-.4.7 2.942 2.942 0 0 0 .3.9l.3 1a17.5 17.5 0 0 1 2.6-.7c.3 0 .5-.3.8-.5a.1.1 0 0 0 .1-.1c.1 0 .1-.1.1-.2a1.519 1.519 0 0 1 2.3 1.9c0 .1 0 .1-.1.1l-.1.1v.1a1.31 1.31 0 0 1-1.3.4.438.438 0 0 0-.3-.1 3.749 3.749 0 0 0-1.1-.1 15.6 15.6 0 0 1-2.1.6l-.4.1c.2.9.8 3 1.5 5.2.8 2.8 1.7 5.8 2 7.3l.1.2a2.219 2.219 0 0 0 .5 1.1 4.349 4.349 0 0 0 .4.7 1 1 0 0 0 .5.4 1.213 1.213 0 0 0 1.3.1 6.043 6.043 0 0 0 3.8-3.4l.4-1.2a2.2 2.2 0 0 0 .1-.8h-.2c-.1 0-.3.1-.4.1h-.2c-.1.1-.2.1-.4.1a10.95 10.95 0 0 0 .9-2.3 3.7 3.7 0 0 1 .5-1.1c.2-.4.3-.7.5-1.1 0-.1.3.4.6.9.2.4.5.8.7 1.2.5.7.9 1.5 1.2 2a1.952 1.952 0 0 1-.7-.1c-.1 0-.3-.1-.4-.1h-.3c0 .2-.1.4-.1.6a6.188 6.188 0 0 0-.1.9zm-13.6-15a.31.31 0 0 0 .2-.1 3.326 3.326 0 0 0 .6-1c.1-.2.1-.3.2-.5a1.426 1.426 0 0 0-1.5-1.1h-.3a1.5 1.5 0 0 0 .3 2.8h.4v-.1z" class="cls-19" data-name="Path 121"/>
    <path id="Path_122" d="M1414.9 289.6c9.4 6.6 17.7 9.9 25.2 9.9 7.4 0 15.7-3.9 24.8-11.7a.3.3 0 0 1 .4 0v.1l-.9 12.1" class="cls-20" data-name="Path 122"/>
    <path id="Path_123" d="M1459.3 288a1.155 1.155 0 0 0 1.2 1.2l7.1-.3a1.2 1.2 0 0 0 1.1-1.2 1.155 1.155 0 0 0-1.2-1.2l-7.1.3a1.2 1.2 0 0 0-1.1 1.2zm-47.2 2a1.155 1.155 0 0 0 1.2 1.2l7-.3a1.2 1.2 0 0 0 1.1-1.2 1.155 1.155 0 0 0-1.2-1.2l-7 .3a1.2 1.2 0 0 0-1.1 1.2z" class="cls-19" data-name="Path 123"/>
    <path id="Path_124" d="M1397 344.5c7.5.7 17.8-12.1 12.2-18.5-2.6-3-6.6-4.7-10.2-5.6a5.388 5.388 0 0 1-3.7-6.7 7.569 7.569 0 0 1 .9-1.8 5.549 5.549 0 0 1 7.7-1.1 6.471 6.471 0 0 1 .9.8c11.7 14.5 19.6 33 34.9 36.3zm-8.8-32a3.289 3.289 0 0 0 3.3-3.4 3.3 3.3 0 1 0-6.6 0 3.289 3.289 0 0 0 3.3 3.4zm140.6 18.4a2.4 2.4 0 1 0-2.4-2.4 2.433 2.433 0 0 0 2.4 2.4zm-139.3-29.8a1.6 1.6 0 1 0-1.6-1.6 1.645 1.645 0 0 0 1.6 1.6zm101.3 45.3c8.8 0 20.5-5 28.2-11.5a3.764 3.764 0 0 1 4.4-.4 3.859 3.859 0 0 1 1.2 5.3c-.1.1-.1.2-.2.2a38.277 38.277 0 0 1-13.7 11c-12.7 6.8-19.9-4.6-19.9-4.6z" class="cls-21" data-name="Path 124"/>
    <path id="Path_125" d="M1408.7 316.5c14.8 18 26.8 17.2 36.1 16.1 9.1-1.1 17.8-.7 26 7 6.6 6.2 23.6 8.6 36.7 2.4 8.3-3.9 3.5 7.6 3.5 7.6l-55.2 9s-33.4-6.3-47.1-42.1z" class="cls-21" data-name="Path 125"/>
    <path id="Path_126" d="M1996.1 339.9c-76.4-14.2-209.8-27.4-298.3-10.6-65.3 12.4-173.7 26.7-252.6 16.8-127.5-16.1-159-32.2-304.5-32.2S911.4 326 863.8 329.3c-12.3.8-26.1 2.3-40.9 3.9-14.7 1.6-92.9 11.1-139.6 11.1-109.4 0-219.1 1.3-317-9.8s-130.7-23.3-239.4-42.1C18.3 273.6 0 296.4 0 296.4v402.2h2387.5V311.8s-314.9 42.3-391.4 28.1z" class="cls-21" data-name="Path 126"/>
    <path id="Path_127" d="M1555.2 4.4l1-.1zm-1.1-.9l.1 1zm31.6 312.6l1-.1zm-.9 1.1l.1 1-.1-1zm-1.1-.9l-1 .1zM1553.2 4.6l1-.1zm186.9 236.9l.3 1zm.7-1.2l1-.3zm-158.5 43.2l-.3-1zm-1.3-.7l1-.3zm.7-1.2l-.3-1zm157.9-42l.3 1zM1556.2 4.3a2.017 2.017 0 0 0-2.2-1.8l.2 2 2-.2zm30.5 311.7L1556.2 4.3l-2 .2 30.4 311.7zm-1.8 2.2a2.017 2.017 0 0 0 1.8-2.2l-2 .2zm-2.2-1.8a2.017 2.017 0 0 0 2.2 1.8l-.2-2-2 .2zM1552.2 4.7l30.4 311.7 2-.2-30.4-311.7-2 .2zm1.8-2.2a2.017 2.017 0 0 0-1.8 2.2l2-.2zm186.3 240a1.94 1.94 0 0 0 1.4-2.4l-1.9.5.5 1.9zm-157.8 42l157.8-42-.5-1.9-157.8 42zm-2.4-1.4a1.94 1.94 0 0 0 2.4 1.4l-.5-1.9-1.9.5zm1.4-2.5a1.94 1.94 0 0 0-1.4 2.4l1.9-.5zm157.8-42l-157.8 42 .5 1.9 157.8-42zm2.4 1.5a1.94 1.94 0 0 0-2.4-1.4l.5 1.9 1.9-.5z" class="cls-22" data-name="Path 127"/>
    <path id="Path_128" d="M1586.9 282.3l.3 1zm.8-1.2l1-.2zm-6 2.5l.3 1zm-1.2-.7l-1 .3zm.7-1.2l-.2-1zm5.2-1.3l-.2-1zm153.5-38.9l.3 1zm-5.6 1.5l.3 1zm-1.2-.7l1-.3zm.7-1.2l.3 1zm5.6-1.5l-.3-1zm-152.2 43.7a1.94 1.94 0 0 0 1.4-2.4l-1.9.5zm-5.2 1.3l5.2-1.3-.5-1.9-5.2 1.3zm-2.5-1.4a1.94 1.94 0 0 0 2.4 1.4l-.5-1.9zm1.5-2.5a1.94 1.94 0 0 0-1.4 2.4l1.9-.5-.5-1.9zm5.2-1.3l-5.2 1.3.5 1.9 5.2-1.3-.5-1.9zm2.4 1.4a1.94 1.94 0 0 0-2.4-1.4l.5 1.9 1.9-.5zm151.6-38.3a1.94 1.94 0 0 0 1.4-2.4l-1.9.5zm-5.6 1.5l5.6-1.5-.5-1.9-5.6 1.5.5 1.9zm-2.5-1.4a1.94 1.94 0 0 0 2.4 1.4l-.5-1.9-1.9.5zm1.4-2.5a1.94 1.94 0 0 0-1.4 2.4l1.9-.5-.5-1.9zm5.7-1.5l-5.6 1.5.5 1.9 5.6-1.5-.5-1.9zm2.4 1.5a1.94 1.94 0 0 0-2.4-1.4l.5 1.9 1.9-.5z" class="cls-23" data-name="Path 128"/>
    <path id="Path_129" d="M1556.3 21zm-.6-.6zm1 128.9zm-.6.6zm-.6-.6zm-.4-128.3zm1.6 129.8zm-.6-.6zm-8.8 166.8zm-.6.6zm-.6-.6zm9.4-166.3zm1.4-129.7a1.155 1.155 0 0 0-1.2-1.2V21zm.4 128.3l-.4-128.3h-1.2l.4 128.3zm-1.2 1.2a1.155 1.155 0 0 0 1.2-1.2h-1.2zm-1.2-1.2a1.155 1.155 0 0 0 1.2 1.2v-1.2zm-.4-128.3l.4 128.3h1.2l-.4-128.3zm1.2-1.2a1.155 1.155 0 0 0-1.2 1.2h1.2zm1.6 131a1.3 1.3 0 0 0-1.1-1.3l-.1 1.2zm-9.4 166.3l9.4-166.2-1.2-.1-9.4 166.2zm-1.2 1.1a1.3 1.3 0 0 0 1.3-1.1l-1.2-.1zm-1.2-1.3a1.3 1.3 0 0 0 1.1 1.3l.1-1.2-1.2-.1zm9.4-166.2l-9.4 166.2 1.2.1 9.4-166.2zm1.3-1.1a1.3 1.3 0 0 0-1.3 1.1l1.2.1.1-1.2z" class="cls-22" data-name="Path 129"/>
    <path id="Path_130" d="M1498.2 286.3l-23.5 1.3a.319.319 0 0 1-.3-.3l-.1-.9a.319.319 0 0 1 .3-.3l23.5-1.3a.319.319 0 0 1 .3.3l.1.9a.319.319 0 0 1-.3.3zm-9.3-12.6l2 5 6.2-.4-.9-5.6-7.3 1zm18.7-60.7l-2-4.6 7.4-2.6 2.4 8.2-7.8-1z" class="cls-24" data-name="Path 130"/>
    <path id="Path_131" d="M1507.6 211s-29.9 3.5-35.1 5.4c-2.6.9-3.5 5.2-2.4 9 1.1 3.5 15 41.4 17.4 47.7a1.206 1.206 0 0 0 1.2.8l7.2-.4c2.9-.8-.4-6.2-7.2-39.9-.3-1.2-.3-2.4.9-2.4a190.927 190.927 0 0 0 36.3-4.7s-1.4-17.2-18.3-15.5z" class="cls-24" data-name="Path 131"/>
    <path id="Path_132" d="M1510 208s6.2-2.8 18-7.6c2.9 1.5 7.4 10.4 9.7 18.2 4.4 11 31 78.3 31.8 83.7 0 .5-.3 1.1-.8 1.1l-6.8.3c-.4 0-.7-.1-.8-.5-3.1-6.2-35.3-66-42.6-80.7-.3-.4-2.3-.8-2.3-.8-1.3-1-4.5-7.4-6.2-13.7z" class="cls-23" data-name="Path 132"/>
    <path id="Path_133" d="M1466.4 162.8s-3.8-4.8-3.3-6.2c.7-1.3 8.4-.7 8.4-.7l-.8 6.7-4.3.2z" class="cls-25" data-name="Path 133"/>
    <path id="Path_134" d="M1471.5 161.9l5.7 20.1 19-9-.8 14.1a142.913 142.913 0 0 1-21.3 7s-5.2 2-5.3-2.7l-2.8-28.8 5.5-.7z" class="cls-25" data-name="Path 134"/>
    <path id="Path_135" d="M1474.6 183.5l1.9-2a.446.446 0 0 1 .5 0l.1.1.5 3.2c0 .1 0 .3-.1.3s-.3 0-.3-.1l-.9-3.1.7.1-2.2 1.7h-.4c.1 0 .1-.1.2-.2z" class="cls-26" data-name="Path 135"/>
    <path id="Path_136" d="M1486.3 190.3a88.043 88.043 0 0 0 8.8-3.4l.8-14.1-13.1 6.2 3.5 11.3z" class="cls-27" data-name="Path 136"/>
    <path id="Path_137" d="M1491.4 145.5l-1.1 13.1a.684.684 0 0 0 .7.7h2s-.4 7.8 1.5 7.8 11.1-3.8 11.1-3.8-.3-13.8-.7-16.1c-.3-2.2-11.1-3.9-13.5-1.7z" class="cls-25" data-name="Path 137"/>
    <path id="Path_138" d="M1491.6 156.9l-36.3 1.6-.1-3.8 36.3-1.5c.3 0 .7.1.7.4a4.475 4.475 0 0 1 .1 2.8c-.2.3-.4.5-.7.5z" class="cls-28" data-name="Path 138"/>
    <path id="Path_139" d="M1475.3 153.8l4.4-.2.2 3.8-4.4.2-.2-3.8z" class="cls-24" data-name="Path 139"/>
    <path id="Path_140" d="M1447.6 160.1c1.5 0 2.6-1.5 2.6-3.4s-1.2-3.4-2.6-3.4-1.3 1.5-1.3 3.4c0 2-.1 3.4 1.3 3.4z" class="cls-29" data-name="Path 140"/>
    <path id="Path_141" d="M1476.8 159.1l-28.5 1.2a1.107 1.107 0 0 1-1.1-1.1l-.1-4.7a1.107 1.107 0 0 1 1.1-1.1l28.5-1.2a.536.536 0 0 1 .5.5l.3 5.8c-.3.3-.4.6-.7.6z" class="cls-28" data-name="Path 141"/>
    <path id="Path_142" d="M1493.1 155.9c.2 0 .4-.4.4-.8s-.2-.8-.4-.8-.4.4-.4.8a.894.894 0 0 0 .4.8z" class="cls-24" data-name="Path 142"/>
    <path id="Path_143" d="M1506 209.7a.908.908 0 0 1-.7-.3c-.7-.5-1.2-2.7-1.6-3.6-.5-1.2-1.1-2.4-1.6-3.8l-2.8-7.2c-.3.4-4.6-7.4-5.8-10.5-.9-2.5-1.7-5.4-.7-8 1.9-4.4 7.5-5.9 11.7-7.5 3.8-1.4 7.9-2.7 11.9-2.4 4.8.4 11.5 29.9 15.6 38.7-.7.9-25.2 4.8-26 4.6z" class="cls-30" data-name="Path 143"/>
    <path id="Path_144" d="M1495.4 159.5a2.609 2.609 0 0 0 1.7-.7 3.269 3.269 0 0 0 1.1-1.5l.1-.1.1.1a2.891 2.891 0 0 1-1.1 1.8 4.751 4.751 0 0 1-1.9.9c-.1 0-.3 0-.3-.1.1-.2.1-.4.3-.4z" class="cls-24" data-name="Path 144"/>
    <path id="Path_145" d="M1507.4 167.4c-1.9-3.8-2-9.9-2-9.9s-4.6 3.1-8.2 3.4a22.515 22.515 0 0 0 2 9.9c.1.1 0 .4-.1.5a.774.774 0 0 0-.3.1c-1.1 3.4.5 6.6 4.8 3.9s6.3-8.1 6.3-8.1c-.5.1-1.1.3-1.5.4a.684.684 0 0 1-1-.2z" class="cls-25" data-name="Path 145"/>
    <path id="Path_146" d="M1497.8 166a13.843 13.843 0 0 0 3.9-1.8c.7-.3 1.2.5.8 1.1l-4 3.1a5.536 5.536 0 0 1-.7-2.4z" class="cls-24" data-name="Path 146"/>
    <path id="Path_147" d="M1469.8 156.9l.4-1.3.3-1.2a4.332 4.332 0 0 0 .1-.5l.4-.8a1.032 1.032 0 0 1 1.6-.4l-.3 2.1v4.4l-.8 2.6-3.3.7a7.406 7.406 0 0 1-.7-3.4c.3-1.6 2.3-2.2 2.3-2.2zm-7.1-3.1c.1.4.5.5.9.5h.9v.3a.946.946 0 0 0 1.1.7l2.2-.3a1.018 1.018 0 0 0 .9-1.1v-.3h.5a.885.885 0 0 0 .8-1.3l-.1-.4c-.1-.5-.8-.4-1.2-.4l-5.9.8c-.7.1-.4.9-.1 1.5z" class="cls-25" data-name="Path 147"/>
    <path id="Path_148" d="M1464.5 154.4l-.5-2m2.2-.3l.5 2.9m1.5-3.2l.5 1.8" class="cls-31" data-name="Path 148"/>
    <path id="Path_149" d="M1449 160.8h-1.5a.319.319 0 0 1-.3-.3l-.3-7.2a.319.319 0 0 1 .3-.3h1.5a.319.319 0 0 1 .3.3l.3 7.2q-.15.3-.3.3zm49.7-6.3h-.5c-.3 0-.4-.1-.5-.4a12.9 12.9 0 0 0-.3-2.4c-5.3-.7-6.1-1.5-6.7-2-2.2-1.7-3.7-5.2-.5-5.4-.7-5.9 1.6-6.6 11.4-1.3a4.337 4.337 0 0 1 5.3 1.3c1.3 3.2.5 10.6 0 14.1-.1.9-.3 1.2-1.2 1.3h-.1a2.188 2.188 0 0 1-2-1.3l-.8-2.1a2.253 2.253 0 0 1 .1-.7c.9-.8 1.5-2.7.4-3.8-1.7-1.8-4 0-4.2 2.1 0 .5-.1.6-.4.6z" class="cls-24" data-name="Path 149"/>
    <path id="Path_150" d="M1553.2 155.7l2.4-3.4a3.157 3.157 0 0 1 1.9-.7c.8-.4 1.7-1.2 1.7-2 0-.3-.7-.4-.7-.4.3 0 .5-.8.5-1.1l-.5-2.5c0-.5-.5-.9-1.2-.9l-.1-.9a1.089 1.089 0 0 0-1.3-.7l-2 .5-3.1 2.4c-2.2 6.9-1.4 10.1 2.4 9.7z" class="cls-25" data-name="Path 150"/>
    <path id="Path_151" d="M1513.9 174.6a3.839 3.839 0 0 1-.4-6.8c1.9-1.2 4.4-1.6 8.3-.9 7.5 1.3 18.9 4.3 18.9 4.3l6.3-17.4 5.6 2s-2.7 22.3-3.6 25.2c-.9 3-2.5 3.1-6 2.3s-20.8-4.3-20.8-4.3l-8.3-4.4z" class="cls-25" data-name="Path 151"/>
    <path id="Path_152" d="M1547.1 153.7l1.6-7.1a.961.961 0 0 1 .7-.9l3.1-2.1a1.379 1.379 0 0 1 .9 0l2 .8c.4.1.5.4.4.8a1.146 1.146 0 0 1-1.5.9l-1.5-.3-1.6 1.1a4.213 4.213 0 0 1 1.2 4.4c-.1.5-1.9 1.6-1.9 1.6l2.6 2.8c-2.6 1.8-4.5.2-6-2z" class="cls-25" data-name="Path 152"/>
    <path id="Path_153" d="M1539.9 173.5l.4-2.4.5.4-2.8 1.9h-.3v-.3l2.6-2.3a.454.454 0 0 1 .5 0c0 .1.1.3 0 .4l-.8 2.3c.2.2 0 .2-.1 0z" class="cls-26" data-name="Path 153"/>
    <path id="Path_154" d="M1492.3 152.6a2.116 2.116 0 0 0 .7-.3h.7a2.662 2.662 0 0 1 1.2.3c.1 0 .1.1.1.3 0 .1-.1.1-.3.1a4.1 4.1 0 0 0-1.1-.1c-.1 0-.4 0-.5.1-.1 0-.3.1-.4.1-.1.1-.4 0-.5-.1-.2 0-.2-.2.1-.4z" class="cls-24" data-name="Path 154"/>
    <path id="Path_155" d="M1531.4 169c-3.2-.7-6.7-1.5-9.7-2-3.9-.7-6.4-.3-8.3.9a3.839 3.839 0 0 0 .4 6.8l8.4 4.3 7.1 1.5 2.1-11.5z" class="cls-30" data-name="Path 155"/>
    <path id="Path_156" d="M1554 143.5a3.071 3.071 0 0 1 1.5.4 2.1 2.1 0 0 1 .5.7 1.379 1.379 0 0 1 0 .9 1.763 1.763 0 0 1-1.5.8 2.934 2.934 0 0 1-1.6-.4h.4a9.834 9.834 0 0 1-1.5 1.2v-.5c.4.3.5.7.8 1.1a2.964 2.964 0 0 1 0 2.6 2.589 2.589 0 0 1-.7 1.1q0 .15-.3 0-.15 0 0-.3a2.219 2.219 0 0 0 .5-1.1 4.1 4.1 0 0 0 .1-1.1 2.279 2.279 0 0 0-.3-1.1c0-.3-.3-.5-.5-.8a.446.446 0 0 1 0-.5c.4-.4.9-.8 1.3-1.2h.1a.3.3 0 0 1 .4 0c.5.4 1.7.7 2.1-.1a.7.7 0 0 0-.4-.9 2.836 2.836 0 0 0-1.3-.4.1.1 0 0 1-.1-.1c.3-.1.3-.3.5-.3z" class="cls-26" data-name="Path 156"/>
    <path id="Path_157" d="M1557.5 144.6c.1.3.3.5.1.9 0 .1-.1.4-.3.4-.1.1-.3.1-.4.3a4.617 4.617 0 0 1-1.5.9l-.8.4a1.3 1.3 0 0 1-1 0c-.3-.1-.5-.4-.7-.8a2.253 2.253 0 0 1 .1-.7c.1-.3.3-.3.4-.4s.4 0 .5.1 0 .4-.1.5-.3.1-.3.3a.42.42 0 0 0 .4.4c.3.3.8 0 1.3-.3s.9-.5 1.5-.8a.821.821 0 0 0 .5-.5c.3-.2.1-.3.3-.7 0-.1-.2-.1 0 0z" class="cls-26" data-name="Path 157"/>
    <path id="Path_158" d="M1558.7 147.1a3.4 3.4 0 0 1-1.3.9 5.226 5.226 0 0 1-1.5.7 2.614 2.614 0 0 0-.8.3 1.223 1.223 0 0 1-.9-.3c-.3-.1-.4-.4-.5-.8s.1-.8.4-.8c.1 0 .3 0 .3.1s0 .1-.1.3c-.4.1-.1.7.1.9a1.332 1.332 0 0 0 .5.3c.3 0 .4-.1.7-.3a4.15 4.15 0 0 0 1.3-.7 12.473 12.473 0 0 0 1.2-.8l.1-.1c.1-.1.3-.1.3 0 .3.1.3.2.2.3z" class="cls-26" data-name="Path 158"/>
    <path id="Path_159" d="M1559.1 148.7a2.915 2.915 0 0 1-1.1.9 7.463 7.463 0 0 1-1.2.7 4.117 4.117 0 0 0-.8.3c-.4 0-.5-.3-.8-.4a1.2 1.2 0 0 1-.4-.8.682.682 0 0 1 .5-.7c.1 0 .1 0 .3.1v.3c-.4.3-.3.5 0 .8a3.983 3.983 0 0 0 .4.3c.1 0 .4-.1.5-.1a3.744 3.744 0 0 0 1.2-.7 10.464 10.464 0 0 0 1.1-.8h.3v.1z" class="cls-26" data-name="Path 159"/>
    <path id="Path_160" d="M1556.4 152a.96.96 0 0 1-.9-.7 1.128 1.128 0 0 1 .3-1.1h.3v.3a.562.562 0 0 0-.1.7c.1.1.4.4.5.3.1 0 .3 0 .3.1a1.41 1.41 0 0 1-.4.4z" class="cls-26" data-name="Path 160"/>
    <path id="Path_161" d="M1517.9 180.8l7.4 4.3c-.7-2-1.3-4-2-5.9l-4.4-.8a1.356 1.356 0 0 0-1 2.4z" class="cls-24" data-name="Path 161"/>
</svg>
