<svg xmlns="http://www.w3.org/2000/svg" width="24px" height="24px" viewBox="0 0 24 24" version="1.1" class="footer__social-icon">
    <g transform="translate(3.000000, 2.000000)">
        <path d="M4.08623369,5.58814247 L4.08623369,17.1801163 L0.228138734,17.1801163 L0.228138734,5.58814247 L4.08623369,5.58814247 Z M4.34033757,2.0022773 C4.34033757,3.11532037 3.50251904,4.00593948 2.15726326,4.00593948 L2.13260794,4.00593948 C0.837356231,4.00593948 0,3.11532037 0,2.0022773 C0,0.865691612 0.862859078,0 2.18268907,0 C3.50251904,0 4.31529701,0.865691612 4.34033757,2.0022773 Z M18,10.5336328 L17.999846,17.1801163 L14.1419051,17.1801163 L14.1419051,10.9784037 C14.1419051,9.42066665 13.5836162,8.35770937 12.1869696,8.35770937 C11.1210893,8.35770937 10.4862149,9.07429769 10.2073787,9.76642013 C10.1053672,10.014464 10.0803267,10.3600636 10.0803267,10.7065095 L10.0803267,17.180424 L6.22176946,17.180424 C6.22176946,17.180424 6.27262105,6.67618112 6.22176946,5.58845021 L10.0803267,5.58845021 L10.0803267,7.23035607 C10.5923868,6.44106259 11.5094876,5.31594046 13.5578822,5.31594046 C16.0966866,5.31594046 18,6.97307979 18,10.5336328 Z"></path>
    </g>
</svg>