<svg xmlns="http://www.w3.org/2000/svg" width="24" height="24" viewBox="0 0 24 24" class="footer__social-icon">
  <path d="M22,6.65726165 C21.3376575,6.93834507 20.6260261,7.12834723 19.8790276,7.21377587 C20.6414245,6.7763705 21.2269859,6.08375592 21.502751,5.25840563 C20.7891156,5.66347665 19.998875,5.95758129 19.1576579,6.11605662 C18.4840655,5.42916196 17.5242666,5 16.4620928,5 C14.4226476,5 12.7692172,6.58236439 12.7692172,8.53420174 C12.7692172,8.81121392 12.8018773,9.08095845 12.8648421,9.3396669 C9.79570743,9.19222764 7.07458384,7.78519551 5.2532124,5.64685525 C4.9353302,6.16884809 4.75318603,6.77596674 4.75318603,7.4236968 C4.75318603,8.64991228 5.40512226,9.7317167 6.39603438,10.3655171 C5.7906801,10.3471461 5.22125543,10.188166 4.72340874,9.92343483 C4.72305718,9.93817203 4.72305718,9.95297652 4.72305718,9.96788195 C4.72305718,11.6802903 5.99602735,13.1087217 7.68535218,13.4334783 C7.37552075,13.5141964 7.04923623,13.5575332 6.71244001,13.5575332 C6.47446782,13.5575332 6.24314015,13.5353265 6.01761325,13.4940085 C6.48758108,14.8980797 7.85135967,15.9200606 9.4673487,15.9484919 C8.20348398,16.8965176 6.61115506,17.4614771 4.88094359,17.4614771 C4.58285433,17.4614771 4.2889135,17.4447884 4,17.411983 C5.63427025,18.4148862 7.5754188,19 9.66088347,19 C16.4534444,19 20.1679411,13.6144632 20.1679411,8.94398327 C20.1679411,8.79075681 20.1642848,8.63833786 20.1572184,8.48672643 C20.8788342,7.98845442 21.5049307,7.36599293 22,6.65726165 Z"></path>
</svg>